<?xml version="1.0" encoding="utf-8"?>
<!-- Generator: Adobe Illustrator 17.0.0, SVG Export Plug-In . SVG Version: 6.00 Build 0)  -->
<!DOCTYPE svg PUBLIC "-//W3C//DTD SVG 1.1//EN" "http://www.w3.org/Graphics/SVG/1.1/DTD/svg11.dtd">
<svg version="1.1" id="Layer_1" xmlns="http://www.w3.org/2000/svg" xmlns:xlink="http://www.w3.org/1999/xlink" x="0px" y="0px"
	 width="4000px" height="4000px" viewBox="0 0 4000 4000" enable-background="new 0 0 4000 4000" xml:space="preserve">
<path fill="#08ABE3" d="M2124.957,2060.504c0,0-77.393-53.746-78.621-60.505c-1.23-6.758-22.728-94.594-23.957-95.822
	c-1.09-1.088-115.865-88.59-141.89-108.427v-144.639h-10.44v697.775h10.44v-70.542c14.857-14.607,57.239-56.438,70.33-71.039
	c15.971-17.815,20.271-21.806,23.955-33.477c3.689-11.671-12.897-27.027-15.047-29.484c-2.15-2.457-70.637-89.063-64.496-91.215
	c6.143-2.151,93.979-100.121,93.979-100.121s15.047,75.554,17.506,79.238c2.457,3.684,81.693,63.266,82.615,63.881
	c0.92,0.613,17.199,11.975,32.863-3.685C2137.856,2076.779,2124.957,2060.504,2124.957,2060.504z M1902.911,2174.445
	c0,1.552-14.411,15.111-22.422,20.911v-49.922C1888.501,2155.168,1902.911,2172.891,1902.911,2174.445z M1946.217,1795.762
	c0-38.844,31.485-70.33,70.33-70.33c38.843,0,70.33,31.486,70.33,70.33c0,38.841-31.487,70.33-70.33,70.33
	C1977.702,1866.092,1946.217,1834.603,1946.217,1795.762z"/>
</svg>
