<?xml version="1.0" encoding="utf-8"?>
<!-- Generator: Adobe Illustrator 17.0.0, SVG Export Plug-In . SVG Version: 6.00 Build 0)  -->
<!DOCTYPE svg PUBLIC "-//W3C//DTD SVG 1.1//EN" "http://www.w3.org/Graphics/SVG/1.1/DTD/svg11.dtd">
<svg version="1.1" id="Layer_1" xmlns="http://www.w3.org/2000/svg" xmlns:xlink="http://www.w3.org/1999/xlink" x="0px" y="0px"
	 width="4000px" height="4000px" viewBox="0 0 4000 4000" enable-background="new 0 0 4000 4000" xml:space="preserve">
<g id="ORANGE">
	<path fill="#F79026" d="M2111.732,1602.578v136.513l-19.981-15.367c0,0-8.491-3.902-13.77-3.902c-5.28,0-13.314,2.526-13.314,2.526
		l-109.718,79.876c0,0-19.51,18.363-2.754,35.577c16.758,17.216,33.739,0,33.739,0l82.176-59.676l43.62,36.385v44.264
		l-135.892,137.634l-44.068-73.142c0,0-17.14-22.647-39.787-8.875c-22.647,13.772-11.323,37.776-11.323,37.776l67.021,112.796
		c0,0,8.88,14.385,27.851,14.385c18.973,0,21.117-3.979,29.074-11.018c7.959-7.041,62.126-63.349,62.126-63.349l44.999,64.5v100.747
		l-48.366,48.06c0,0-20.196,25.707-1.223,42.845c18.973,17.142,37.642,4.899,40.397,2.146c1.515-1.514,5.712-5.707,9.191-9.175
		v46.252h10.438v-697.775H2111.732z"/>
</g>
</svg>
