<?xml version="1.0" encoding="UTF-8" standalone="no"?>
<!-- Created with Inkscape (http://www.inkscape.org/) -->

<svg
   xmlns:dc="http://purl.org/dc/elements/1.1/"
   xmlns:cc="http://creativecommons.org/ns#"
   xmlns:rdf="http://www.w3.org/1999/02/22-rdf-syntax-ns#"
   xmlns:svg="http://www.w3.org/2000/svg"
   xmlns="http://www.w3.org/2000/svg"
   xmlns:sodipodi="http://sodipodi.sourceforge.net/DTD/sodipodi-0.dtd"
   xmlns:inkscape="http://www.inkscape.org/namespaces/inkscape"
   width="1200"
   height="2227"
   id="svg4155"
   version="1.1"
   inkscape:version="0.91 r13725"
   viewBox="0 0 1200 2227"
   sodipodi:docname="Skyrim Logo.svg">
  <defs
     id="defs4157">
    <clipPath
       clipPathUnits="userSpaceOnUse"
       id="clipPath4152-4-4">
      <rect
         style="fill:#fdf6e3;fill-opacity:1;fill-rule:nonzero;stroke:none;stroke-width:3;stroke-linecap:round;stroke-linejoin:miter;stroke-miterlimit:4;stroke-dasharray:none;stroke-opacity:1"
         id="rect4154-6-3"
         width="598.57141"
         height="928.57141"
         x="352.85715"
         y="22.362183" />
    </clipPath>
  </defs>
  <sodipodi:namedview
     id="base"
     pagecolor="#ffffff"
     bordercolor="#666666"
     borderopacity="1.0"
     inkscape:pageopacity="0.0"
     inkscape:pageshadow="2"
     inkscape:zoom="0.175"
     inkscape:cx="-759.05774"
     inkscape:cy="1035.3579"
     inkscape:document-units="px"
     inkscape:current-layer="layer1"
     showgrid="false"
     borderlayer="true"
     inkscape:showpageshadow="false"
     inkscape:window-width="1920"
     inkscape:window-height="1027"
     inkscape:window-x="-8"
     inkscape:window-y="-8"
     inkscape:window-maximized="1"
     showguides="false" />
  <metadata
     id="metadata4160">
    <rdf:RDF>
      <cc:Work
         rdf:about="">
        <dc:format>image/svg+xml</dc:format>
        <dc:type
           rdf:resource="http://purl.org/dc/dcmitype/StillImage" />
        <dc:title />
      </cc:Work>
    </rdf:RDF>
  </metadata>
  <g
     inkscape:label="Skyrim Logo"
     inkscape:groupmode="layer"
     id="layer1"
     transform="translate(0,1174.638)">
    <path
       transform="matrix(2.9580221,0,0,2.9577572,-1438.5556,-1500.1947)"
       style="display:inline;opacity:1;fill:#0062ba;fill-opacity:1"
       d="M 892.00003,427.2921 747.00949,119.42816 c 0,0 -1.59932,-1.61325 -3.34271,-1.75529 0,0 -1.21121,2.72888 -1.49056,5.43883 -1.62603,15.77417 0.32325,16.94617 -4.36916,23.81885 -2.50891,3.67463 -6.56061,9.23277 -6.55934,10.21253 0.004,2.98007 1.65435,2.68575 4.56201,-0.0879 1.47966,-1.41146 4.39525,-2.56892 6.02075,-3.18326 2.61518,-0.98838 4.14512,-0.0739 5.71541,1.06138 1.40343,1.01467 1.95633,3.17836 2.5019,4.55336 0.54556,1.375 9.23298,35.43749 19.76371,75.84721 16.98117,65.16214 19.31766,69.7956 18.71323,75.09079 0,0 0.73755,8.37742 -0.80854,11.49359 -2.50611,5.0511 -12.24389,13.13267 -12.24389,13.13267 -12.10307,11.58021 -12.12535,9.6941 -11.24376,13.00127 0.81047,3.04036 0.75167,2.78401 3.83151,2.5256 1.86074,-0.15612 4.73788,-0.34519 5.85351,-1.39243 3.14216,-2.94956 10.84883,-7.33981 15.0158,-6.83392 9.00493,1.09325 8.26818,2.43898 18.29967,41.16116 4.37528,16.88888 6.36001,26.79431 7.80381,32.89204 1.88327,7.95373 0.51674,10.7483 -4.83423,16.262 -7.78136,8.018 -21.03427,11.88197 -35.25766,9.58749 -7.9644,-1.28479 -13.05715,-5.4831 -13.95336,-8.3068 -0.93067,-2.9323 -1.18763,-7.95075 0.31307,-11.46812 2.43088,-5.69754 7.62372,-10.62295 13.05937,-13.22096 3.24785,-1.55232 6.10115,-2.6462 5.90516,-3.34303 -0.68812,-2.4466 -22.60055,4.53225 -30.70541,11.2851 -6.18645,5.76556 -11.41087,11.49619 -15.47766,18.66133 l 0.39921,-5.96497 c 0.38345,-5.72948 0.17449,-5.84535 3.23438,-10.67705 0.82286,-1.29934 3.34084,-3.28493 3.06052,-3.70476 -0.43412,-0.65017 -3.93324,-0.80575 -6.97293,0.66574 -9.94529,5.15889 -11.25115,12.8299 -16.80836,20.17866 -0.2778,0.001 -1.5555,-2.70654 -2.83933,-6.01743 -3.52869,-9.10025 -9.2161,-16.62063 -23.18841,-31.4041 -13.38393,-14.16095 -15.98268,-18.7773 -15.97212,-26.85933 0.005,-4.16527 3.35812,-11.62387 7.2792,-15.96252 4.87067,-5.38936 8.49344,-6.02321 18.81525,-10.99562 24.41623,-11.76223 32.98812,-19.23908 37.85031,-32.15672 2.73261,-7.2599 2.5383,-12.86943 0.56001,-22.69693 -3.57172,-17.74305 -20.07583,-31.02923 -42.76024,-34.42298 l -4.76042,-0.71219 c 2.00065,-4.34007 5.52077,-7.53439 8.80779,-10.22311 1.49218,-1.24411 5.73708,-3.72853 9.4963,-5.61973 15.32482,-7.70964 15.45251,-7.97251 17.12461,-15.66048 0.4724,-2.172 1.10601,-3.39244 0.35759,-3.44408 -0.85531,-0.059 -2.80462,1.43231 -4.32374,3.89988 -2.18699,3.5524 -3.38856,4.06441 -11.02482,6.24308 -12.35578,3.52518 -22.24931,5.36193 -34.91689,6.03465 -1.83996,0 -2.5,-0.53226 -2.5,-2.01603 0,-1.10881 -2.10303,-7.74631 -4.67339,-14.75 -5.84965,-15.93902 -6.53648,-21.05919 -4.00302,-27.85897 2.20256,-5.91164 3.38459,-6.38698 1.73891,-6.33714 -2.35503,0.0713 -9.54107,7.85129 -10.81308,13.20178 -1.02913,4.32887 -0.97788,7.97715 0.28946,20.60273 l 1.54003,15.34238 -6.1704,10.97803 c -5.89187,10.48248 -6.14312,11.20845 -5.56588,16.08238 0.55208,4.66141 0.24798,5.75024 -3.50443,12.54795 -3.99292,7.23338 -4.09332,7.64504 -3.55491,14.57525 0.6861,8.83103 1.07129,9.81917 4.65236,11.93455 2.23242,1.31872 3.68649,2.45322 4.41887,2.10158 0.55914,-0.26847 0.64548,-1.66389 0.64548,-2.95936 0,-4.93198 3.86324,-10.97452 12.16648,-19.02973 5.32516,-5.16609 10.38837,-9.04749 14.0257,-10.75194 3.13071,-1.46705 5.96065,-3.10174 6.28878,-3.63266 15.2968,-2.60861 37.08877,10.38892 43.6567,22.77536 4.74239,9.7471 2.60784,19.82199 -8.27238,29.49591 -7.29387,6.48519 -13.16613,9.36261 -31.53212,15.56084 -24.35855,8.08314 -39.41413,23.97185 -40.08172,43.13708 -0.5331,11.36895 -0.59384,11.13229 11.16365,43.5 1.3985,3.85 2.55223,8.30727 2.56382,9.90504 0.008,1.04967 -0.30114,1.6642 -0.30114,1.6642 0,0 -1.36344,-1.36289 -3.50073,-4.6642 -2.10263,-3.24777 -5.52214,-6.21581 -7.43687,-7.89199 -3.79732,-3.32424 -9.56166,-6.93651 -10.57299,-5.92518 -0.93477,0.93478 2.76041,4.66632 3.83282,6.12164 2.95186,4.00584 2.40803,8.75725 2.34218,12.54049 -0.0297,1.70817 -0.32313,2.75 -0.32313,2.75 -4.79727,-6.30407 -9.13967,-14.6528 -15.56057,-20.04454 -6.94907,-5.54269 -22.06969,-9.60875 -28.29687,-9.64446 -4.09644,-0.0235 -1.62986,1.51714 4.40005,4.39917 9.8209,4.74596 16.03311,17.30569 12.71165,24.55981 -1.74276,3.13708 -5.70236,5.09291 -14.12309,6.49823 -17.25535,2.87971 -34.41173,-5.28294 -38.4998,-17.28079 -1.37897,-4.04704 -1.17223,-5.17416 7.35098,-40.07579 4.82342,-19.7514 9.09591,-36.91304 9.49442,-38.13699 1.05252,-3.23264 6.43888,-3.97569 13.25186,-1.82809 4.35674,1.37334 6.9912,3.22504 13.00077,9.13791 4.14524,4.07854 8.11013,7.97804 8.58168,7.97804 0,0 0.85906,-3.11515 -0.86058,-10.5625 -1.4865,-6.43765 -1.97061,-5.46126 -13.96414,-16.85095 -4.71772,-4.4802 -7.33411,-6.96374 -9.12182,-8.95569 -2.72285,-3.03392 -3.47473,-3.7698 -3.44395,-6.74882 0.0168,-1.62852 0.34264,-6.46948 0.68896,-8.05834 10.74371,-49.28972 22.05213,-100.31217 38.58868,-152.98088 1.02211,-1.69439 3.61769,-3.23388 5.1047,-3.03031 4.22263,0.57807 11.55881,13.43272 13.09342,13.17038 0.9562,-8.79579 -7.21962,-20.28786 -10.9154,-25.84642 0,0 1.37737,-29.0626 -3.01294,-30.99185 L 486.32355,429.22639 c 44.09463,102.23328 105.14996,213.12872 144.66143,308.59565 0.53105,1.3968 1.65169,2.5396 2.4903,2.5396 1.3492,0 1.52475,-6.8315 1.52475,-59.336 l 0,-59.3361 -6.04791,-1.6815 c -8.87352,-2.467 -12.63342,-4.4766 -24.90093,-18.787 -10.74761,-12.5373 -10.96187,-13.9546 -11.5726,-19.5731 -0.42464,-3.9065 0.0793,-10.172 1.55106,-19.2863 2.99917,-18.5726 4.06995,-35.0231 2.78619,-42.8045 -0.57206,-3.4675 -0.47104,-6.8736 -0.47104,-6.8736 0.85845,-0.48345 13.2954,4.3056 17.11015,6.9233 10.64118,5.53696 15.1141,14.84336 19.25126,24.3181 1.55157,3.55334 4.95927,9.97331 4.95927,9.97331 -0.6262,-12.18894 1.97004,-31.62702 -7.16545,-39.61911 l 4.87957,2.0613 c 19.88228,11.36868 48.52936,37.10094 54.08046,60.0244 2.63923,11.4118 6.54016,34.8373 6.53439,39.2398 -0.004,2.81281 0.55013,5.86824 -0.66287,9.21045 -1.92899,5.31497 -6.84513,13.72048 -16.63905,31.0854 -12.46008,22.0921 -15.88938,27.32785 -16.36415,31.33655 -0.55004,4.6442 -0.0631,6.1677 7.04037,22.0255 4.1972,9.3699 7.63128,18.2503 7.63128,19.7344 0,2.7215 -9.62075,17.9132 -18.10076,28.5821 -5.70625,7.1792 -8.22055,13.0217 -7.35106,17.082 0.61113,2.8537 6.09021,16.2435 8.60418,21.0268 0,0 16.11558,37.14558 26.00204,58.5333 1.54356,3.33923 3.77194,8.58691 5.42093,8.78299 2.20478,-0.024 3.89797,-5.85919 5.3721,-9.38574 5.2998,-12.67869 18.59901,-41.54028 26.36813,-58.1124 2.39145,-5.0739 3.02993,-6.57824 2.29045,-8.68094 -1.42757,-4.0593 -4.11212,-3.81859 -10.00899,1.21931 -6.33958,5.4161 -19.95604,14.57454 -25.65508,16.58474 -6.01418,2.1215 -8.71664,1.06869 -13.94936,-2.77241 -4.85694,-3.5654 -10.30585,-12.4754 -14.45741,-23.6407 -1.62816,-4.3789 -1.62983,-4.86789 -0.0294,-8.5 1.94504,-4.83661 4.71278,-8.64487 7.58725,-12.3197 1.99551,-1.9309 6.36313,-7.93927 9.43981,-11.99001 2.68315,-3.53262 7.27753,-9.58154 7.86409,-10.73613 1.79211,-3.5276 0.9286,-9.09546 -3.32143,-26.10306 -4.59145,-18.3738 -3.77886,-20.77134 -3.01261,-24.8844 5.48114,-12.67072 14.25823,-22.73466 22.23801,-35.1331 l 12.33082,-19.1588 c 4.94908,-6.8915 5.45714,-13.94287 1.64454,-41.8673 -6.79171,-23.97318 9.02617,-60.8224 27.13304,-66.85422 1.66253,7.1525 -3.81826,29.28669 -0.19607,32.33873 10.31318,-19.47607 12.91941,-31.98937 34.80192,-39.15281 6.51256,-1.65805 12.13387,-5.79016 17.74336,-8.25008 -26.54478,22.58614 -2.7444,72.75084 -5.79236,76.38298 -6.26602,13.10123 -16.37293,29.86726 -27.73449,34.8934 -5.56054,2.68877 -10.29995,3.382 -16.23165,4.937 l -0.21582,27.4591 c -0.11924,15.17154 0.49124,28.1767 0.74432,28.901 0.47039,1.34633 3.29644,2.46542 4.80511,1.95208 l 12.23359,-3.9108 c 5.71398,-1.25614 8.39734,-0.94242 13.34875,-0.38012 2.39113,0.1493 2.41282,-1.06566 3.47478,-2.73046 z"
       id="path4148"
       inkscape:connector-curvature="0"
       clip-path="url(#clipPath4152-4-4)"
       sodipodi:nodetypes="ccssscssassssssssssssssassccsscccsscassssccsscsscsssssscsssssssssccsccsscsssssccsccsssssssssssscscccccssccssssccscccccssssssscscscssccsccasscscccccccccscccccc"
       inkscape:export-xdpi="89.999992"
       inkscape:export-ydpi="89.999992" />
  </g>
</svg>
