<?xml version="1.0" encoding="UTF-8" standalone="no"?>
<!-- Created with Inkscape (http://www.inkscape.org/) -->

<svg
   xmlns:dc="http://purl.org/dc/elements/1.1/"
   xmlns:cc="http://creativecommons.org/ns#"
   xmlns:rdf="http://www.w3.org/1999/02/22-rdf-syntax-ns#"
   xmlns:svg="http://www.w3.org/2000/svg"
   xmlns="http://www.w3.org/2000/svg"
   xmlns:sodipodi="http://sodipodi.sourceforge.net/DTD/sodipodi-0.dtd"
   xmlns:inkscape="http://www.inkscape.org/namespaces/inkscape"
   width="406"
   height="476"
   id="svg2"
   version="1.1"
   inkscape:version="0.91 r13725"
   sodipodi:docname="Assassins_Creed_Logo_Stencil.svg">
  <defs
     id="defs4" />
  <sodipodi:namedview
     id="base"
     pagecolor="#ffffff"
     bordercolor="#666666"
     borderopacity="1.0"
     inkscape:pageopacity="0.0"
     inkscape:pageshadow="2"
     inkscape:zoom="0.66021057"
     inkscape:cx="-222.69714"
     inkscape:cy="166.71489"
     inkscape:document-units="px"
     inkscape:current-layer="layer3"
     showgrid="true"
     showguides="true"
     inkscape:guide-bbox="true"
     inkscape:window-width="1920"
     inkscape:window-height="1027"
     inkscape:window-x="-8"
     inkscape:window-y="-8"
     inkscape:window-maximized="1"
     fit-margin-top="0"
     fit-margin-left="0"
     fit-margin-right="0"
     fit-margin-bottom="0">
    <inkscape:grid
       type="xygrid"
       id="grid3120"
       empspacing="10"
       visible="true"
       enabled="true"
       snapvisiblegridlinesonly="false"
       spacingx="0.5px"
       spacingy="0.5px"
       dotted="false"
       originx="-277"
       originy="-649.97436" />
  </sodipodi:namedview>
  <metadata
     id="metadata7">
    <rdf:RDF>
      <cc:Work
         rdf:about="">
        <dc:format>image/svg+xml</dc:format>
        <dc:type
           rdf:resource="http://purl.org/dc/dcmitype/StillImage" />
        <dc:title></dc:title>
      </cc:Work>
    </rdf:RDF>
  </metadata>
  <g
     inkscape:groupmode="layer"
     id="layer3"
     inkscape:label="Full"
     style="display:inline"
     transform="translate(-138.5,-251.375)">
    <path
       style="opacity:1;fill:#000000;fill-opacity:1;stroke:none"
       d="m 341.5,251.375 -94,235.5 c 0,0 -8.4197,17.94273 -13.5,24 -13,15.5 -17.75,17.25 -22,19.5 -4.25,2.25 -15,6.5 -24,6.5 -9,0 -20,-2 -37.5,-11.5 8,18.5 11,35 11.5,51 0.5,16 -6.5,34 -9.5,41 16,-8 30,0 36,4.5 4.5607,3.42053 16,15.5 24.5,21 8.5,5.5 27.5,18 36.375,22 11.11973,5.01171 56.625,23.5 80.125,22.5 -30,-8 -46.82273,-16.28414 -55.5,-21.5 -5.23099,-3.14431 -10.125,-6.5 -15,-11 -4.875,-4.5 -9.5,-9 -11.5,-12 -2,-3 -6,-9.5 -7.5,-14 -0.75,-2.75 -2.0625,-5.875 -2.5,-9 -0.4375,-3.125 -1,-7.75 -1,-10 0,-2.25 0.22233,-9.9375 2,-17 1.77767,-7.0625 5.61618,-15.74785 11,-29.5 l 92,-235 92,235 c 5.38382,13.75215 9.22233,22.4375 11,29.5 1.77767,7.0625 2,14.75 2,17 0,2.25 -0.5625,6.875 -1,10 -0.4375,3.125 -1.75,6.25 -2.5,9 -1.5,4.5 -5.5,11 -7.5,14 -2,3 -6.625,7.5 -11.5,12 -4.875,4.5 -9.76901,7.85569 -15,11 -8.67727,5.21586 -25.5,13.5 -55.5,21.5 23.5,1 69.00527,-17.48829 80.125,-22.5 8.875,-4 27.875,-16.5 36.375,-22 8.5,-5.5 19.9393,-17.57947 24.5,-21 6,-4.5 20,-12.5 36,-4.5 -3,-7 -10,-25 -9.5,-41 0.5,-16 3.5,-32.5 11.5,-51 -17.5,9.5 -28.5,11.5 -37.5,11.5 -9,0 -19.75,-4.25 -24,-6.5 -4.25,-2.25 -9,-4 -22,-19.5 -5.0803,-6.05727 -13.5,-24 -13.5,-24 l -94,-235.5 z m -203,370.5 c 6.5,12.5 35,40 54.5,55 15.4518,11.886 19.3125,13.375 33.5,21 14.1875,7.625 29,14.75 37,17.5 32,11 55,11.5 78,12 23,-0.5 46,-1 78,-12 8,-2.75 22.8125,-9.875 37,-17.5 14.1875,-7.625 18.0482,-9.114 33.5,-21 19.5,-15 48,-42.5 54.5,-55 -11,11 -16.61665,16.56527 -22,21.5 -6,5.5 -16.93902,14.67582 -36,28 -51.5,36 -94,36.5 -103,36.5 -9,0 -19,-2 -26,-5 -7,-3 -10,-5 -16,-15.5 -6,10.5 -9,12.5 -16,15.5 -7,3 -17,5 -26,5 -9,0 -51.5,-0.5 -103,-36.5 -19.06098,-13.32418 -30,-22.5 -36,-28 -5.38335,-4.93473 -11,-10.5 -22,-21.5 z"
       id="path3053-2"
       inkscape:connector-curvature="0" />
  </g>
</svg>
