<?xml version="1.0" encoding="UTF-8" standalone="no"?>
<!-- Created with Inkscape (http://www.inkscape.org/) -->

<svg
   xmlns:dc="http://purl.org/dc/elements/1.1/"
   xmlns:cc="http://creativecommons.org/ns#"
   xmlns:rdf="http://www.w3.org/1999/02/22-rdf-syntax-ns#"
   xmlns:svg="http://www.w3.org/2000/svg"
   xmlns="http://www.w3.org/2000/svg"
   xmlns:sodipodi="http://sodipodi.sourceforge.net/DTD/sodipodi-0.dtd"
   xmlns:inkscape="http://www.inkscape.org/namespaces/inkscape"
   width="60.434811mm"
   height="60.708408mm"
   viewBox="0 0 214.13909 215.10853"
   id="svg4175"
   version="1.1"
   inkscape:version="0.91 r13725"
   sodipodi:docname="Division.svg">
  <defs
     id="defs4177" />
  <sodipodi:namedview
     id="base"
     pagecolor="#ffffff"
     bordercolor="#666666"
     borderopacity="1.0"
     inkscape:pageopacity="0.0"
     inkscape:pageshadow="2"
     inkscape:zoom="0.35"
     inkscape:cx="-402.21617"
     inkscape:cy="116.1257"
     inkscape:document-units="px"
     inkscape:current-layer="layer1"
     showgrid="false"
     fit-margin-top="0"
     fit-margin-left="0"
     fit-margin-right="0"
     fit-margin-bottom="0"
     inkscape:window-width="1920"
     inkscape:window-height="1027"
     inkscape:window-x="-8"
     inkscape:window-y="-8"
     inkscape:window-maximized="1" />
  <metadata
     id="metadata4180">
    <rdf:RDF>
      <cc:Work
         rdf:about="">
        <dc:format>image/svg+xml</dc:format>
        <dc:type
           rdf:resource="http://purl.org/dc/dcmitype/StillImage" />
        <dc:title></dc:title>
      </cc:Work>
    </rdf:RDF>
  </metadata>
  <g
     inkscape:label="Layer 1"
     inkscape:groupmode="layer"
     id="layer1"
     transform="translate(-355.7876,-433.37937)">
    <path
       style="display:inline;fill:#fe7e00"
       inkscape:connector-curvature="0"
       d="m 355.7876,647.84783 c 0,-0.49609 2.23325,-8.49566 4.9627,-17.77635 2.72945,-9.28118 8.68377,-29.99159 13.23126,-46.02391 4.54799,-16.03132 8.69477,-30.4606 9.21509,-32.06363 l 0.94607,-2.91486 15.85732,0 15.85731,0 0,21.97343 0,21.97344 14.79029,-0.004 c 30.1456,-0.007 48.41296,-5.76822 62.57224,-19.73239 6.09322,-6.00952 10.89122,-13.72027 12.69325,-20.39941 l 1.02862,-3.81177 31.01362,0 31.01361,0 -0.62372,4.26018 c -0.99544,6.79914 -6.51403,22.14144 -11.13622,30.96062 -16.59833,31.66862 -46.34392,53.17705 -85.37669,61.73422 -8.71467,1.91044 -11.37323,2.01064 -62.57224,2.36024 -35.4877,0.24232 -53.47106,0.0618 -53.47106,-0.53686 z m 30.94962,-109.94817 c 0,-0.37167 27.51754,-98.80997 28.80957,-103.06205 0.48934,-1.60973 1.62463,-1.66363 25.6705,-1.21873 28.55357,0.52836 40.04579,2.03075 56.14811,7.34035 19.33739,6.37623 33.14366,14.82829 46.13692,28.24356 16.29232,16.82033 24.85849,36.17772 25.92351,58.57616 l 0.50086,10.53822 -30.93561,0 -30.93562,0 -0.52936,-8.29617 c -2.07984,-32.40065 -24.33348,-45.52091 -77.20952,-45.52091 l -14.46629,0 0,26.90654 0,26.90654 -14.56229,0 c -8.00926,0 -14.56228,-0.18908 -14.56228,-0.42017 z"
       id="path3353"
       sodipodi:nodetypes="cccscccccccccccscssccccssccccccscccscc" />
  </g>
</svg>
