<?xml version="1.0" encoding="UTF-8" standalone="no"?>
<!-- Created by Yingtong Li/RunasSudo -->

<svg
   xmlns:dc="http://purl.org/dc/elements/1.1/"
   xmlns:cc="http://creativecommons.org/ns#"
   xmlns:rdf="http://www.w3.org/1999/02/22-rdf-syntax-ns#"
   xmlns:svg="http://www.w3.org/2000/svg"
   xmlns="http://www.w3.org/2000/svg"
   xmlns:xlink="http://www.w3.org/1999/xlink"
   xmlns:sodipodi="http://sodipodi.sourceforge.net/DTD/sodipodi-0.dtd"
   xmlns:inkscape="http://www.inkscape.org/namespaces/inkscape"
   width="399.26279"
   height="403.55594"
   id="svg3842"
   version="1.1"
   inkscape:version="0.91 r13725"
   sodipodi:docname="Dota2Logo.svg"
   inkscape:export-filename="/home/runassudo/Pictures/Dota2-Filled.png"
   inkscape:export-xdpi="90"
   inkscape:export-ydpi="90">
  <defs
     id="defs3844">
    <linearGradient
       id="linearGradient4381">
      <stop
         style="stop-color:#bb3119;stop-opacity:1;"
         offset="0"
         id="stop4383" />
      <stop
         style="stop-color:#812112;stop-opacity:1;"
         offset="1"
         id="stop4385" />
    </linearGradient>
    <linearGradient
       inkscape:collect="always"
       xlink:href="#linearGradient4381"
       id="linearGradient4387"
       x1="297.72574"
       y1="81.647881"
       x2="294.41711"
       y2="486.64789"
       gradientUnits="userSpaceOnUse"
       gradientTransform="translate(-100.3686,-82.012784)" />
  </defs>
  <sodipodi:namedview
     id="base"
     pagecolor="#ffffff"
     bordercolor="#666666"
     borderopacity="1.0"
     inkscape:pageopacity="0.0"
     inkscape:pageshadow="2"
     inkscape:zoom="0.98994949"
     inkscape:cx="167.08198"
     inkscape:cy="211.53924"
     inkscape:document-units="px"
     inkscape:current-layer="layer1"
     showgrid="false"
     inkscape:window-width="1920"
     inkscape:window-height="1027"
     inkscape:window-x="-8"
     inkscape:window-y="-8"
     inkscape:window-maximized="1"
     fit-margin-top="0"
     fit-margin-left="0"
     fit-margin-right="0"
     fit-margin-bottom="0" />
  <metadata
     id="metadata3847">
    <rdf:RDF>
      <cc:Work
         rdf:about="">
        <dc:format>image/svg+xml</dc:format>
        <dc:type
           rdf:resource="http://purl.org/dc/dcmitype/StillImage" />
        <dc:title />
      </cc:Work>
    </rdf:RDF>
  </metadata>
  <g
     inkscape:label="Layer 1"
     inkscape:groupmode="layer"
     id="layer1"
     transform="translate(-100.3686,-82.012784)">
    <path
       style="fill:url(#linearGradient4387);fill-opacity:1;stroke:none"
       d="M 177.0293 0 C 174.50391 6.31345 170.96875 3.5351562 170.96875 3.5351562 L 163.13867 2.7773438 L 161.87695 8.3339844 L 159.35156 3.03125 C 157.07871 12.88024 154.80664 11.617188 154.80664 11.617188 L 148.51172 11.841797 C 148.56074 12.23718 148.39352 13.111294 147.73438 14.900391 C 145.96661 19.698607 140.91602 14.900391 140.91602 14.900391 C 140.91602 14.900391 123.7445 15.909377 115.1582 15.404297 C 106.57191 14.899227 101.77344 8.0820312 101.77344 8.0820312 L 98.490234 12.626953 L 90.408203 11.617188 L 89.904297 9.0917969 L 85.611328 11.617188 L 67.427734 11.111328 L 65.660156 12.878906 L 62.882812 9.8496094 L 58.335938 9.5957031 L 56.316406 11.869141 L 53.539062 8.0820312 L 52.023438 7.828125 L 50.507812 11.869141 L 47.982422 9.8496094 L 37.123047 9.34375 L 34.78125 4.9765625 C 19.78125 20.333698 7.28125 7.4765625 7.28125 7.4765625 L 5.3027344 23.486328 L 3.7871094 23.234375 L 3.03125 13.888672 L 4.7988281 13.384766 L 5.3027344 11.869141 L 0.7578125 11.363281 L 0 31.820312 C 3.78807 37.628692 4.5449219 31.566406 4.5449219 31.566406 L 6.8183594 32.830078 C -1.7679306 123.49127 10.607422 162.38281 10.607422 162.38281 C 1.7685919 184.8587 15.658203 191.17188 15.658203 191.17188 L 15.152344 206.32422 L 8.3339844 202.53516 L 8.0820312 206.32422 L 11.617188 208.34375 L 10.607422 210.11133 C 7.0718919 207.08088 5.8085938 207.83984 5.8085938 207.83984 C 3.7882838 243.70026 7.3242188 259.60938 7.3242188 259.60938 L 15.152344 260.87109 L 13.384766 303.80273 L 7.3242188 304.05664 C 4.7988388 308.09725 4.5449219 323.75391 4.5449219 323.75391 C 10.100762 368.70569 2.5253906 382.3418 2.5253906 382.3418 L 14.142578 384.11133 L 13.888672 389.66602 L 16.414062 390.92969 C 16.919142 386.88908 20.960938 385.87891 20.960938 385.87891 C 23.738857 386.88906 21.212891 391.18164 21.212891 391.18164 L 23.738281 391.6875 L 24.748047 386.13086 L 26.263672 386.13086 L 26.011719 389.41406 L 28.537109 389.66602 C 39.648789 384.61526 40.40625 390.17188 40.40625 390.17188 L 41.416016 383.85742 C 42.931246 387.89803 54.800781 387.14062 54.800781 387.14062 C 65.154841 385.87794 66.417969 390.42383 66.417969 390.42383 L 65.912109 384.11133 L 68.185547 384.11133 C 69.195697 388.90956 72.478516 387.64648 72.478516 387.64648 C 72.983586 381.08049 75.761719 382.3418 75.761719 382.3418 C 77.782029 384.61465 77.277344 389.91797 77.277344 389.91797 L 80.054688 391.18164 C 81.064838 386.38341 86.115234 387.14062 86.115234 387.14062 L 90.408203 384.11133 L 90.408203 387.14062 L 94.955078 387.14062 L 96.216797 383.85742 C 97.479487 384.61504 98.238281 389.66602 98.238281 389.66602 L 100.50977 389.66602 L 102.27734 388.4043 L 103.54102 390.17188 C 103.79356 387.64649 107.07617 385.87891 107.07617 385.87891 L 110.10742 390.42383 L 112.37891 389.66602 L 112.12695 386.38281 C 114.39979 385.12012 119.70312 390.67578 119.70312 390.67578 L 120.96484 389.16211 L 118.43945 386.13086 L 121.97656 382.3418 C 122.2291 385.37226 127.02734 390.67578 127.02734 390.67578 C 125.25957 382.8471 129.80469 381.58594 129.80469 381.58594 C 132.58261 390.42477 138.39062 390.67578 138.39062 390.67578 C 138.89571 387.14025 140.1582 386.88867 140.1582 386.88867 C 147.22927 394.46481 161.37109 387.89844 161.37109 387.89844 L 170.96875 403.55664 C 173.24159 400.77872 179.30273 401.2832 179.30273 401.2832 L 178.03906 396.99023 C 195.21165 391.43439 200.76758 401.2832 200.76758 401.2832 L 204.05078 396.48438 L 206.07031 396.23242 L 206.32422 400.01953 C 212.1326 404.06014 225.01172 399.26367 225.01172 399.26367 L 221.98047 396.99023 C 220.71778 393.95977 259.35742 394.46484 259.35742 394.46484 C 259.60996 396.23261 257.8418 397.49414 257.8418 397.49414 L 247.99219 398.25195 C 257.58864 404.5654 265.41797 396.73828 265.41797 396.73828 L 266.42773 392.44336 L 263.14453 393.20117 C 264.65976 389.4131 268.70117 390.67578 268.70117 390.67578 L 266.93359 396.73828 C 269.71151 397.74843 271.73047 395.98047 271.73047 395.98047 L 271.98438 391.6875 L 273.75195 391.6875 L 272.74023 395.22266 C 286.12475 391.18205 295.72266 392.94922 295.72266 392.94922 C 296.98535 386.8883 303.04492 388.15039 303.04492 388.15039 C 311.88375 394.96892 322.74414 390.42383 322.74414 390.42383 C 345.22004 401.53551 357.3418 390.17188 357.3418 390.17188 C 362.39256 396.9904 362.14062 389.66602 362.14062 389.66602 L 368.70508 389.41406 L 369.7168 387.39258 L 354.56445 386.13086 C 366.93881 373.75649 399.26367 392.44336 399.26367 392.44336 L 397.74805 229.05273 C 380.57545 230.8205 387.14062 225.01172 387.14062 225.01172 C 390.42362 227.78964 392.19141 225.76953 392.19141 225.76953 C 390.92872 214.15277 394.46484 207.58594 394.46484 207.58594 C 389.91916 204.30295 395.98047 190.16211 395.98047 190.16211 C 388.15179 190.66719 391.93945 175.00977 391.93945 175.00977 C 385.37346 173.74708 386.38281 169.20117 386.38281 169.20117 C 390.67596 164.90802 384.61523 167.43359 384.61523 167.43359 C 378.30178 156.32191 389.91797 152.78516 389.91797 152.78516 L 385.37305 141.16797 L 396.99023 140.91602 C 402.29353 77.781476 394.7168 41.667969 394.7168 41.667969 C 400.77772 38.384969 396.23242 17.929688 396.23242 17.929688 C 383.85805 15.404307 385.12109 10.101562 385.12109 10.101562 L 374.26172 9.8496094 L 370.47266 7.5761719 C 370.22012 16.162472 350.52344 6.8183594 350.52344 6.8183594 C 341.93714 16.414809 339.66406 0.7578125 339.66406 0.7578125 C 341.43182 1.0103525 333.60235 -1.2636606 336.63281 3.7871094 C 339.66327 8.8378694 335.875 9.0917969 335.875 9.0917969 C 264.91179 1.5156469 258.85156 7.0703125 258.85156 7.0703125 C 266.17517 11.868543 258.59902 17.9295 258.85156 19.697266 C 245.46704 19.444726 242.18359 22.222656 242.18359 22.222656 C 241.93105 10.85844 227.5361 3.2833956 218.69727 4.0410156 C 209.85843 4.7986256 204.55664 0.25195312 204.55664 0.25195312 C 196.22288 8.0806431 177.0293 0 177.0293 0 z M 148.51172 11.841797 C 148.42926 11.17679 147.73438 11.869141 147.73438 11.869141 L 148.51172 11.841797 z M 72.666016 72.017578 C 83.566587 71.807949 88.892578 77.529297 88.892578 77.529297 L 118.69336 98.490234 L 117.17773 100.25781 L 123.74414 106.82422 L 125.25977 106.06641 L 122.22852 102.27734 L 128.54102 105.8125 L 127.02734 108.33789 L 128.28906 109.60156 L 130.5625 107.83398 L 132.83594 110.10742 L 136.875 110.35938 C 136.36993 116.92536 146.47266 116.41992 146.47266 116.41992 L 306.83398 225.51562 L 304.81445 227.78906 L 309.10742 231.32422 L 306.58203 231.07227 L 299.25781 228.04102 L 299.00586 231.32422 L 318.45117 233.0918 L 351.78516 255.56836 C 349.76485 301.27776 325.77344 331.83594 325.77344 331.83594 C 275.26581 335.11893 265.92188 312.89453 265.92188 312.89453 L 225.51562 269.71094 L 227.28516 267.4375 L 222.99023 263.39648 L 223.24414 266.67969 C 218.95099 258.09339 213.90039 255.31641 213.90039 255.31641 L 215.16211 259.35742 C 209.35374 254.5592 211.12109 249.00195 211.12109 249.00195 L 203.54492 239.1543 C 197.48401 235.8713 201.77734 240.92188 201.77734 240.92188 L 207.58594 247.48828 L 206.07031 249.75977 C 206.07031 249.75977 195.96971 241.17399 189.65625 229.30469 C 183.3428 217.4354 188.14062 230.56641 188.14062 230.56641 L 148.99805 188.14062 L 152.02734 190.41406 C 152.02734 190.41406 155.81581 195.46462 153.54297 189.65625 C 151.27013 183.84787 143.94727 184.85742 143.94727 184.85742 L 46.972656 81.316406 C 57.579261 74.403176 66.125673 72.143355 72.666016 72.017578 z M 297.2168 74.707031 C 303.02459 74.815206 305.94922 77.023438 305.94922 77.023438 L 323.50195 89.904297 L 323.375 91.544922 L 320.72266 90.787109 C 320.72266 90.787109 318.45078 91.923551 319.46094 95.837891 C 320.47109 99.752231 321.48047 95.333984 321.48047 95.333984 L 321.22852 93.3125 L 323.50195 93.1875 L 315.41992 145.08398 L 312.13672 145.33594 L 309.99023 142.55859 L 306.20312 142.55859 C 306.20312 142.55859 307.21249 134.98174 303.17188 134.85547 C 299.13126 134.7292 301.27734 137.38086 301.27734 137.38086 L 304.43555 138.89648 L 303.55078 140.66406 L 237.25977 89.777344 C 237.25977 89.777344 275.26752 80.179965 287.51562 76.265625 C 291.34316 75.042394 294.57689 74.657861 297.2168 74.707031 z M 77.65625 242.94141 L 156.44727 319.08203 L 100.63672 337.01172 L 97.226562 334.86523 C 97.226562 334.86523 96.385039 338.36971 92.972656 337.23828 C 91.837603 337.60042 91.039062 336.25391 91.039062 336.25391 C 91.764041 336.74327 92.400759 337.04866 92.972656 337.23828 C 93.7023 337.00549 94.569633 336.07393 95.458984 333.60352 C 95.458984 333.60352 94.57519 331.58322 93.3125 333.60352 L 92.429688 335.49609 L 92.175781 331.83594 L 89.904297 333.34961 L 88.136719 333.09766 L 87.757812 336.38086 L 54.421875 311.63281 C 54.421875 311.63281 49.624039 309.86354 53.412109 298.37305 C 57.200179 286.88257 77.65625 242.94141 77.65625 242.94141 z "
       transform="translate(100.3686,82.012784)"
       id="path3775" />
  </g>
</svg>
