<?xml version="1.0" encoding="UTF-8" standalone="no"?>
<!DOCTYPE svg PUBLIC "-//W3C//DTD SVG 20010904//EN"
              "http://www.w3.org/TR/2001/REC-SVG-20010904/DTD/svg10.dtd">

<svg xmlns="http://www.w3.org/2000/svg"
     width="6.73611in" height="4.18056in"
     viewBox="0 0 485 301">
  <path id="Selection"
        fill="#333435" stroke="none" stroke-width="0"
        d="M 182.00,1.11
           C 182.00,1.11 247.00,1.11 247.00,1.11
             247.00,1.11 313.00,1.11 313.00,1.11
             333.43,1.00 354.09,0.85 374.00,6.15
             403.17,13.93 425.21,28.29 445.96,50.00
             459.39,64.05 470.53,83.59 476.67,102.00
             496.23,160.69 479.26,224.20 432.00,264.70
             407.24,285.92 377.18,296.88 345.00,299.09
             345.00,299.09 333.00,300.00 333.00,300.00
             333.00,300.00 200.00,300.00 200.00,300.00
             177.89,300.00 147.12,301.11 126.00,297.57
             100.44,293.28 77.26,282.44 57.00,266.33
             53.05,263.19 49.56,259.57 46.00,256.00
             2.80,212.79 -9.57,147.13 14.43,91.00
             23.27,70.31 37.27,52.11 54.00,37.17
             69.77,23.09 94.37,10.53 115.00,5.65
             115.00,5.65 135.00,2.17 135.00,2.17
             135.00,2.17 146.00,1.11 146.00,1.11
             146.00,1.11 182.00,1.11 182.00,1.11 Z
           M 118.01,111.29
           C 88.28,135.09 94.33,182.13 130.00,196.55
             136.76,199.28 140.79,199.99 148.00,200.00
             148.00,200.00 338.00,200.00 338.00,200.00
             366.81,199.96 387.32,177.36 387.00,149.00
             386.69,122.08 364.64,101.04 338.00,101.10
             338.00,101.10 208.00,101.10 208.00,101.10
             208.00,101.10 141.00,101.10 141.00,101.10
             132.79,102.85 124.58,106.03 118.01,111.29 Z" />
</svg>
