<?xml version="1.0" encoding="UTF-8" standalone="no"?>
<svg
   xmlns:dc="http://purl.org/dc/elements/1.1/"
   xmlns:cc="http://creativecommons.org/ns#"
   xmlns:rdf="http://www.w3.org/1999/02/22-rdf-syntax-ns#"
   xmlns:svg="http://www.w3.org/2000/svg"
   xmlns="http://www.w3.org/2000/svg"
   xmlns:sodipodi="http://sodipodi.sourceforge.net/DTD/sodipodi-0.dtd"
   xmlns:inkscape="http://www.inkscape.org/namespaces/inkscape"
   version="1.1"
   viewBox="76.7 23.7 56.561006 54.4"
   id="Layer_1"
   inkscape:version="0.91 r13725"
   sodipodi:docname="Rocket-league-logo (1).svg"
   width="56.561005"
   height="54.400002">
  <sodipodi:namedview
     pagecolor="#1e1c1e"
     bordercolor="#666666"
     borderopacity="1"
     objecttolerance="10"
     gridtolerance="10"
     guidetolerance="10"
     inkscape:pageopacity="1"
     inkscape:pageshadow="2"
     inkscape:window-width="1920"
     inkscape:window-height="1027"
     id="namedview4162"
     showgrid="false"
     fit-margin-top="0"
     fit-margin-left="0"
     fit-margin-right="0"
     fit-margin-bottom="0"
     inkscape:zoom="9.7869509"
     inkscape:cx="75.099995"
     inkscape:cy="27.199998"
     inkscape:window-x="-8"
     inkscape:window-y="-8"
     inkscape:window-maximized="1"
     inkscape:current-layer="Layer_1" />
  <metadata
     id="metadata48">
    <rdf:RDF>
      <cc:Work
         rdf:about="">
        <dc:format>image/svg+xml</dc:format>
        <dc:type
           rdf:resource="http://purl.org/dc/dcmitype/StillImage" />
        <dc:title></dc:title>
      </cc:Work>
    </rdf:RDF>
  </metadata>
  <defs
     id="defs46" />
  <style
     id="style2">.st0{fill:#fff}.st1{fill:url(#SVGID_1_)}.st2,.st3{opacity:.4;enable-background:new}.st3{fill:url(#SVGID_3_)}.st4{fill:url(#SVGID_4_)}</style>
  <path
     id="path4"
     d="m 103.3,43.200001 c 0,0 1.3,0.1 2.4,1.5 l -0.6,0.1 -0.3,-0.1 c 0,0 -0.9,-1.1 -1.5,-1.5 z m -2,6.2 -0.6,-1.5 -0.2,0 -1.000003,1.2 c 0.700003,0.6 1.800003,0.3 1.800003,0.3 z m 9.2,-8.8 -0.5,0.2 0.6,1.1 2,0.7 c -0.8,-1.7 -2.1,-2 -2.1,-2 z m -5.7,2.1 c 0.6,0.7 1.2,1.7 1.2,1.7 1,-1 3.1,-1.4 5.8,-1.3 -3.8,-0.8 -7,-0.4 -7,-0.4 z m -3.7,-1.5 c 0,0 1.1,0 2.6,0.3 -1,-0.7 -2.6,-1.1 -2.6,-1.1 l 0,0.8 z m 9.2,5.5 -1.7,1.5 1.3,0.4 1.3,-1.4 -0.7,-0.3 -0.2,-0.2 z m -11.300003,-7.9 c 0,0 0.7,0.4 0.8,0.4 0.1,0 1.500003,0.5 2.100003,0.7 0.5,0.2 0.8,0 0.9,0 0.1,0 1.8,-1 1.8,-1 -1.5,-0.6 -2.9,-1 -2.9,-1 -0.1,0 -2.700003,0.9 -2.700003,0.9 z m 10.200003,0.9 c -0.1,-0.2 -0.3,-0.2 -1.5,-0.4 -1.1,-0.1 -2.1,-0.2 -2.3,-0.2 -0.2,0 -0.3,0.1 -0.3,0.1 0,0 -0.6,0.4 -1.1,0.7 -0.5,0.3 -0.6,0.4 -0.7,0.6 -0.1,0.1 0.2,0.5 0.2,0.5 l 0.8,1 c 0.1,0 0.4,0.2 0.4,0.2 0,0 1.6,-0.1 2.6,-0.2 l 2.6,0 c 0.1,0 0,-0.4 -0.2,-0.9 -0.2,-0.4 -0.5,-1.4 -0.5,-1.4 z m -9.500003,1.1 c 0,0 0.1,0 0.3,0.1 0.200003,0 0.300003,-0.2 0.300003,-0.4 0,-0.3 -0.300003,-0.4 -0.300003,-0.4 l -0.2,0 -0.3,0.1 -0.1,0.7 0.1,0 0.2,-0.1 c -0.1,-0.2 -0.1,-0.3 -0.1,-0.5 0,-0.1 0.2,-0.3 0.3,-0.3 0,0 0.200003,0 0.1,0.4 0,0.4 -0.3,0.4 -0.3,0.4 z m 16.900003,7.9 -0.8,1.1 0,0.1 1.1,0 c 0.2,-0.7 -0.3,-1.2 -0.3,-1.2 z m -20.000003,-5.2 -0.2,0 -0.5,-0.1 c -0.5,-0.1 -0.3,-1 -0.3,-1 l -0.6,0.2 c -0.2,-0.4 -1.1,-1.5 -1.1,-1.5 l -0.2,0.8 c 0.1,0.1 0.6,0.9 0.7,1.1 l -0.3,0.3 c 0,0 -0.1,0.2 -0.1,0.3 0,0.1 -0.1,0.2 -0.1,0.2 l -0.4,0.2 -0.1,0 -1.4,-1.1 0,0.8 0.1,0 c 0.1,0.2 0.3,0.6 0.8,0.8 0.4,0.2 0.9,0.2 1.1,0.1 0.2,0.1 0.3,0.1 0.4,0.2 0.4,0.2 0.5,0.1 0.5,0.1 l 0.6,-0.2 0.1,0 0.1,-0.1 0.2,-0.4 c 0,0 1,0.1 1.4,0.1 0.4,-0.6 1.7,-1.5 2.6,-1.6 0.900003,0 2.400003,0.2 3.600003,1.4 1.1,1.2 0.8,2.8 0.8,2.8 l 2.2,0.7 -1,-0.7 c -0.8,-2 -2.7,-3.8 -2.7,-3.8 0,0 -0.5,-0.1 -0.8,-0.1 -0.3,-0.1 -0.5,-0.3 -0.5,-0.3 0,0 -0.1,-0.1 -0.3,-0.4 l -0.2,-0.4 c 0,0 -0.2,-0.2 -0.5,-0.4 -0.3,-0.2 -1.400003,-0.3 -2.000003,-0.4 -0.6,-0.1 -0.6,0 -0.6,0 1.7,0.4 2.200003,0.5 2.300003,0.6 0,0 0.1,0.2 0.2,0.3 -1.400003,-0.3 -2.700003,-0.1 -3.000003,0 0.2,0.3 0.2,0.7 0,1 -0.2,0.2 -0.8,0.5 -0.8,0.5 z m 19.000003,7.2 0.3,1.3 c 0,0 0.3,-0.3 0.6,-0.7 0.3,-0.4 0.4,-0.8 0.4,-0.8 l -1.2,0.1 -0.1,0.1 z m -24.100003,-9.1 -0.1,1.1 0.6,0 0.1,-0.7 0,0.4 0.1,0 0,-0.6 -0.1,0 0,-0.4 0.9,0.5 0.1,0.2 0.2,0.2 0.2,0 0.1,-0.1 0,-0.1 c -0.6,0 -0.6,-0.3 -0.6,-0.3 0,0 0.1,-0.7 0.2,-0.9 0.1,-0.2 0.5,-0.1 0.5,-0.1 l -0.1,-0.1 -0.2,0 c -0.2,-0.1 -0.8,-0.5 -1,-0.6 l 0,-0.1 0.1,-0.1 0,-0.4 0.1,0 c 0,-0.1 0.1,-0.1 0.1,-0.2 0.2,0 1.7,-0.3 1.7,-0.3 l -1.4,-0.3 0,-0.1 c -0.4,-0.1 -0.7,-0.2 -0.9,-0.3 -0.5,0.6 -0.7,1.4 -0.7,1.4 0,0 -0.1,1.4 -0.1,1.6 -0.1,0.2 0.2,0.3 0.2,0.3 z m 23.500003,7.9 0.2,0.3 0.1,-0.1 0.8,-1 0,-0.1 c -0.4,0 -1.1,0.9 -1.1,0.9 z m -2.4,-1.8 -0.6,-0.2 -1.4,1.6 1,0.3 c 0.2,-0.8 1,-1.7 1,-1.7 z m 2.1,2.3 c -0.5,1 -0.4,1.7 -0.4,1.7 l 0.5,-1.1 0,-0.2 c 0.1,0 0,-0.2 -0.1,-0.4 z m -0.5,-6.5 c 0,0 -0.2,0.4 -0.3,0.5 -0.1,0.1 -0.8,0.2 -1.2,0.3 -0.4,0.2 -1.1,0.5 -1.3,0.7 -0.1,0.1 -0.1,0.4 -0.1,0.5 0,0 0.2,0.1 0.3,0.1 l -0.9,0.8 0.2,0.2 2.2,0.7 c 0.5,-0.4 1.2,-0.5 1.2,-0.5 -0.4,-0.2 -2.1,-0.9 -2.6,-1.1 0,0 -0.3,-0.1 -0.3,-0.2 l 0,-0.3 c 0,0 1.3,-1 3.3,-1 l 0.3,-0.6 -0.8,-0.1 z m 1.3,8.8 -0.4,-1.2 -0.1,0 -0.6,1.1 0.1,0.1 c 0.5,0.2 1,0 1,0 z m -15.1,-11.4 0.3,0.1 c 0,0 0.2,0 0.2,-0.2 l 0,-0.4 -0.3,-0.2 -0.4,-0.1 c 0.1,0.1 0.1,0.2 0.1,0.2 l 0.1,0 c 0,-0.1 0.1,-0.1 0.1,0 0,0 0.2,0.1 0.1,0.4 0.1,0.1 -0.1,0.2 -0.2,0.2 z m -0.900003,5.5 c -0.7,1.3 -0.2,2.2 -0.2,2.2 l 0.900003,-1.3 0,-0.2 -0.700003,-0.7 z m -6.5,-7.7 1.2,0.3 c 0.1,0 0.8,-0.1 0.8,-0.1 l -1.9,-0.5 -0.1,0.3 z m 0.7,-0.3 c 1.6,0.2 1.9,0.5 1.9,0.5 0,0 0.6,-0.1 0.9,-0.1 -0.5,-0.4 -2.7,-1.1 -2.7,-1.1 0,0 -0.1,0.3 -0.1,0.7 z m 2.4,3.1 c -0.3,0.2 -0.6,0.8 -0.5,1.3 0.1,0.5 0.2,0.5 0.5,0.5 -0.5,-0.2 -0.4,-1 0,-1.5 0.3,-0.4 0.6,-0.1 0.6,-0.1 0,0 -0.3,-0.4 -0.6,-0.2 z m -7.1,14.8 c -1.3,0 -2.8,0.5 -1.9,1.9 7.4,12.7 15.200003,15.7 18.500003,17.3 1.5,-0.7 3.9,-1.8 6.8,-3.8 1.7,-1.1 1.5,-2.8 1.1,-3.9 -2.1,-5.2 -13.600003,-11.1 -24.500003,-11.5 z m 41.700003,-23.7 c -3,-2.1 -10.4,-5.9 -25.1,-5.9 -5.1,0 -9.400003,0.5 -12.800003,1.2 0.8,1.3 1.2,2.8 1.2,4.4 0,2.2 -0.8,4.2 -2.1,5.7 0.3,0.1 0.7,0.2 1.2,0.3 l 0.2,-0.5 c 0,0 0.2,0 0.3,0.1 0,-0.5 0.3,-0.5 0.3,-0.5 0,0 0,-0.1 0.1,-0.1 0.5,0.1 1.9,0.8 2.5,1.1 0.6,0.3 0.6,0.4 0.6,0.4 0,0 1.4,0 1.8,-0.1 0.4,0 1.1,-0.3 2.100003,-0.6 1,-0.3 1.2,-0.4 1.4,-0.4 0.2,0 2,0.1 3.6,0.3 1.6,0.2 3.1,0.8 3.4,1 l 0.5,0.1 0.1,-0.3 -0.8,-0.3 c 0,0 0.1,-0.5 0.1,-0.6 0,-0.1 0.1,-0.2 0.2,-0.2 0.1,0 1,0.2 1.3,0.3 0.3,0.1 1.3,0.8 1.4,0.8 0.1,0 0.1,0.1 0.1,0.1 0,0.2 -0.2,0.6 -0.2,0.6 l -0.3,-0.1 0.3,0.1 c 0,0 0.3,0.1 0.4,0.2 0.1,0.1 0.4,0.3 0.7,0.6 0.3,0.2 0.2,0.5 0.2,0.5 l 0.7,0.7 0,0.3 1.7,1.7 0,0.1 -0.8,0.5 c 0,0 1.1,-0.1 1.9,0.3 0.8,0.4 0.9,0.6 0.9,0.8 -0.2,0.1 -0.5,0.2 -0.5,0.2 -0.6,0.2 -2.1,1.2 -2.1,1.2 l 0,0.1 0.8,0.2 c 0.9,-0.8 2.5,-1.1 3.7,-0.9 4.1,0.8 6.9,3.5 7.5,5.8 0,0.1 0.1,0.3 0.1,0.4 4.1,-9.6 3.7,-16.5 3.4,-19.6 z m -14.4,14.6 c 0.1,0.1 0.2,0.1 0.3,0.2 0.6,0.4 0.9,0.6 1,1.5 0.1,0.7 -0.1,1.7 -0.6,2.6 2.8,1.9 6.7,0.4 8.2,1.9 -0.3,-3.8 -5.9,-7.6 -8.9,-6.2 z m -23.000003,-4.9 -0.2,0.1 0,0.8 0.2,-0.1 0,-0.8 z m 28.900003,12.4 c -2.1,0 -4.2,-0.7 -5.7,-2.5 l 0,0.1 c -0.9,1.2 -1.9,1.2 -2.3,1.2 -0.4,0 -1.7,-0.6 -2.2,-1.2 -0.5,-0.6 -0.5,-1.7 -0.5,-1.7 l -2,-0.7 -2.5,-1.4 -0.4,-0.1 c -0.8,0.4 -1.8,0.1 -2.7,-0.6 -0.1,0.4 -0.6,1.4 -1.2,1.9 -0.6,0.5 -1.8,1.2 -2.700003,1.2 -0.9,0 -2.9,-1 -3.5,-2.4 -0.6,-1.4 0,-2.9 0,-2.9 l -1,-0.2 -0.4,-0.5 c 0,0 -1.2,1 -2.5,0.6 -1.3,-0.4 -2.4,-1.5 -2.7,-2.5 -0.2,-1 0.1,-1.9 0.2,-2 -0.2,-0.7 -0.2,-1.1 -0.2,-1.1 l -0.1,0 0,-0.3 c -1.3,0.9 -2.8,1.3 -4.4,1.3 -1.8,0 -3.5,-0.6 -4.9,-1.5 0.2,2.2 0.8,4.8 1.6,7.7 1.1,4 4.7,5.3 10.1,6.2 11.900003,1.9 23.300003,11 22.500003,16.6 3,-2.5 6.2,-6.2 9.4,-11.7 1.3,-2.1 0.1,-3.5 -1.9,-3.5 z m -31.800003,-13.8 -0.1,1.1 0.7,0 0,-0.1 -0.1,0 0,-0.1 -0.1,0 0.1,-0.2 0.1,-0.5 -0.1,-0.1 0,-0.2 0.1,-0.1 0.1,-1.2 -0.5,-0.3 c 0.2,-0.8 0.7,-1.5 0.7,-1.5 l -0.3,0 c -0.5,0.6 -0.7,1.4 -0.7,1.4 0,0 -0.1,1.3 -0.1,1.5 0,0.3 0.2,0.3 0.2,0.3 z m 11.000003,6.7 0.5,1.6 c 1,-0.7 1.2,-1.8 1.2,-1.8 l -1.6,0.1 -0.1,0.1 z m 0.9,-2.5 -0.8,1.4 0.1,0.1 1.6,0.1 c 0,-1.1 -0.9,-1.6 -0.9,-1.6 z m -10.000003,-3.1 -0.1,0.6 0.1,0 0,-0.6 z m 7.6,3.8 0.800003,0.6 0.2,-0.1 0.9,-1.4 c -1.1,-0.1 -1.900003,0.9 -1.900003,0.9 z m -7.4,-3.7 -0.1,-0.1 0,0.7 0.1,0 0,-0.6 z m 0.3,0.2 -0.1,0.7 0.1,0 0,-0.7 z m 0.2,0.1 -0.1,0.7 0.1,0 0,-0.7 z m -0.4,-0.2 -0.1,0.7 0.1,0 0,-0.7 z"
     class="st0"
     inkscape:connector-curvature="0"
     style="fill:#ffffff" />
  <g
     id="Symbol_2_"
     transform="translate(-3.0517578e-6,7.6293946e-7)">
    <path
       id="path7"
       d="m 133.1,32.4 -0.1,-1.1 -1,-0.7 c -4.2,-2.9 -12.2,-6.3 -26.5,-6.3 -5.4,0 -10.3,0.5 -14.6,1.5 -1.5,-1.3 -3.5,-2.1 -5.6,-2.1 -4.7,0 -8.6,3.8 -8.6,8.6 0,1.5 0.4,2.9 1.1,4.2 0.2,7.4 2.5,15.1 7,22.9 7.4,12.5 15.3,16.2 19.1,17.9 0.3,0.1 0.5,0.2 0.7,0.3 l 1,0.5 1,-0.5 c 0.2,-0.1 0.5,-0.2 0.7,-0.3 3.9,-1.7 11.7,-5.4 18.9,-17.9 7.9,-13.7 7.2,-23.7 6.9,-27 z"
       class="st0"
       inkscape:connector-curvature="0"
       style="fill:#ffffff" />
    <radialGradient
       gradientUnits="userSpaceOnUse"
       gradientTransform="matrix(1,0,0,-1,0,103.8)"
       r="47.776001"
       cy="71.662003"
       cx="85.226997"
       id="SVGID_1_">
      <stop
         id="stop9"
         stop-color="#00aeff"
         offset="0" />
      <stop
         id="stop11"
         stop-color="#00a5f7"
         offset=".131" />
      <stop
         id="stop13"
         stop-color="#008de0"
         offset=".345" />
      <stop
         id="stop15"
         stop-color="#0065ba"
         offset=".616" />
      <stop
         id="stop17"
         stop-color="#002f87"
         offset=".928" />
      <stop
         id="stop19"
         stop-color="#00217a"
         offset="1" />
    </radialGradient>
    <path
       id="path22"
       d="m 103.3,43.2 c 0,0 1.3,0.1 2.4,1.5 l -0.6,0.1 -0.3,-0.1 c 0,0 -0.9,-1.1 -1.5,-1.5 z m -2,6.2 -0.6,-1.5 -0.2,0 -1,1.2 c 0.7,0.6 1.8,0.3 1.8,0.3 z m 9.2,-8.8 -0.5,0.2 0.6,1.1 2,0.7 c -0.8,-1.7 -2.1,-2 -2.1,-2 z m -5.7,2.1 c 0.6,0.7 1.2,1.7 1.2,1.7 1,-1 3.1,-1.4 5.8,-1.3 -3.8,-0.8 -7,-0.4 -7,-0.4 z m -3.7,-1.5 c 0,0 1.1,0 2.6,0.3 -1,-0.7 -2.6,-1.1 -2.6,-1.1 l 0,0.8 z m 9.2,5.5 -1.7,1.5 1.3,0.4 1.3,-1.4 -0.7,-0.3 -0.2,-0.2 z M 99,38.8 c 0,0 0.7,0.4 0.8,0.4 0.1,0 1.5,0.5 2.1,0.7 0.5,0.2 0.8,0 0.9,0 0.1,0 1.8,-1 1.8,-1 -1.5,-0.6 -2.9,-1 -2.9,-1 -0.1,0 -2.7,0.9 -2.7,0.9 z m 10.2,0.9 c -0.1,-0.2 -0.3,-0.2 -1.5,-0.4 -1.1,-0.1 -2.1,-0.2 -2.3,-0.2 -0.2,0 -0.3,0.1 -0.3,0.1 0,0 -0.6,0.4 -1.1,0.7 -0.5,0.3 -0.6,0.4 -0.7,0.6 -0.1,0.1 0.2,0.5 0.2,0.5 l 0.8,1 c 0.1,0 0.4,0.2 0.4,0.2 0,0 1.6,-0.1 2.6,-0.2 l 2.6,0 c 0.1,0 0,-0.4 -0.2,-0.9 -0.2,-0.4 -0.5,-1.4 -0.5,-1.4 z m -9.5,1.1 c 0,0 0.1,0 0.3,0.1 0.2,0 0.3,-0.2 0.3,-0.4 0,-0.3 -0.3,-0.4 -0.3,-0.4 l -0.2,0 -0.3,0.1 -0.1,0.7 0.1,0 0.2,-0.1 c -0.1,-0.2 -0.1,-0.3 -0.1,-0.5 0,-0.1 0.2,-0.3 0.3,-0.3 0,0 0.2,0 0.1,0.4 0,0.4 -0.3,0.4 -0.3,0.4 z m 16.9,7.9 -0.8,1.1 0,0.1 1.1,0 c 0.2,-0.7 -0.3,-1.2 -0.3,-1.2 z m -20,-5.2 -0.2,0 -0.5,-0.1 c -0.5,-0.1 -0.3,-1 -0.3,-1 L 95,42.6 c -0.2,-0.4 -1.1,-1.5 -1.1,-1.5 l -0.2,0.8 c 0.1,0.1 0.6,0.9 0.7,1.1 l -0.3,0.3 c 0,0 -0.1,0.2 -0.1,0.3 0,0.1 -0.1,0.2 -0.1,0.2 l -0.4,0.2 -0.1,0 -1.4,-1.1 0,0.8 0.1,0 c 0.1,0.2 0.3,0.6 0.8,0.8 0.4,0.2 0.9,0.2 1.1,0.1 0.2,0.1 0.3,0.1 0.4,0.2 0.4,0.2 0.5,0.1 0.5,0.1 l 0.6,-0.2 0.1,0 0.1,-0.1 0.2,-0.4 c 0,0 1,0.1 1.4,0.1 0.4,-0.6 1.7,-1.5 2.6,-1.6 0.9,0 2.4,0.2 3.6,1.4 1.1,1.2 0.8,2.8 0.8,2.8 l 2.2,0.7 -1,-0.7 c -0.8,-2 -2.7,-3.8 -2.7,-3.8 0,0 -0.5,-0.1 -0.8,-0.1 -0.3,-0.1 -0.5,-0.3 -0.5,-0.3 0,0 -0.1,-0.1 -0.3,-0.4 L 101,41.9 c 0,0 -0.2,-0.2 -0.5,-0.4 -0.3,-0.2 -1.4,-0.3 -2,-0.4 -0.6,-0.1 -0.6,0 -0.6,0 1.7,0.4 2.2,0.5 2.3,0.6 0,0 0.1,0.2 0.2,0.3 -1.4,-0.3 -2.7,-0.1 -3,0 0.2,0.3 0.2,0.7 0,1 -0.2,0.2 -0.8,0.5 -0.8,0.5 z m 19,7.2 0.3,1.3 c 0,0 0.3,-0.3 0.6,-0.7 0.3,-0.4 0.4,-0.8 0.4,-0.8 l -1.2,0.1 -0.1,0.1 z m -24.1,-9.1 -0.1,1.1 0.6,0 0.1,-0.7 0,0.4 0.1,0 0,-0.6 -0.1,0 0,-0.4 0.9,0.5 0.1,0.2 0.2,0.2 0.2,0 0.1,-0.1 0,-0.1 C 93,42.1 93,41.8 93,41.8 c 0,0 0.1,-0.7 0.2,-0.9 0.1,-0.2 0.5,-0.1 0.5,-0.1 l -0.1,-0.1 -0.2,0 c -0.2,-0.1 -0.8,-0.5 -1,-0.6 l 0,-0.1 0.1,-0.1 0,-0.4 0.1,0 c 0,-0.1 0.1,-0.1 0.1,-0.2 0.2,0 1.7,-0.3 1.7,-0.3 L 93,38.7 93,38.6 c -0.4,-0.1 -0.7,-0.2 -0.9,-0.3 -0.5,0.6 -0.7,1.4 -0.7,1.4 0,0 -0.1,1.4 -0.1,1.6 -0.1,0.2 0.2,0.3 0.2,0.3 z m 23.5,7.9 0.2,0.3 0.1,-0.1 0.8,-1 0,-0.1 c -0.4,0 -1.1,0.9 -1.1,0.9 z m -2.4,-1.8 -0.6,-0.2 -1.4,1.6 1,0.3 c 0.2,-0.8 1,-1.7 1,-1.7 z m 2.1,2.3 c -0.5,1 -0.4,1.7 -0.4,1.7 l 0.5,-1.1 0,-0.2 c 0.1,0 0,-0.2 -0.1,-0.4 z m -0.5,-6.5 c 0,0 -0.2,0.4 -0.3,0.5 -0.1,0.1 -0.8,0.2 -1.2,0.3 -0.4,0.2 -1.1,0.5 -1.3,0.7 -0.1,0.1 -0.1,0.4 -0.1,0.5 0,0 0.2,0.1 0.3,0.1 l -0.9,0.8 0.2,0.2 2.2,0.7 c 0.5,-0.4 1.2,-0.5 1.2,-0.5 -0.4,-0.2 -2.1,-0.9 -2.6,-1.1 0,0 -0.3,-0.1 -0.3,-0.2 l 0,-0.3 c 0,0 1.3,-1 3.3,-1 l 0.3,-0.6 -0.8,-0.1 z m 1.3,8.8 -0.4,-1.2 -0.1,0 -0.6,1.1 0.1,0.1 c 0.5,0.2 1,0 1,0 z m -15.1,-11.4 0.3,0.1 c 0,0 0.2,0 0.2,-0.2 l 0,-0.4 -0.3,-0.2 -0.4,-0.1 c 0.1,0.1 0.1,0.2 0.1,0.2 l 0.1,0 c 0,-0.1 0.1,-0.1 0.1,0 0,0 0.2,0.1 0.1,0.4 0.1,0.1 -0.1,0.2 -0.2,0.2 z m -0.9,5.5 c -0.7,1.3 -0.2,2.2 -0.2,2.2 l 0.9,-1.3 0,-0.2 -0.7,-0.7 z M 93,38.7 94.2,39 C 94.3,39 95,38.9 95,38.9 L 93.1,38.4 93,38.7 Z m 0.7,-0.3 c 1.6,0.2 1.9,0.5 1.9,0.5 0,0 0.6,-0.1 0.9,-0.1 -0.5,-0.4 -2.7,-1.1 -2.7,-1.1 0,0 -0.1,0.3 -0.1,0.7 z m 2.4,3.1 c -0.3,0.2 -0.6,0.8 -0.5,1.3 0.1,0.5 0.2,0.5 0.5,0.5 -0.5,-0.2 -0.4,-1 0,-1.5 0.3,-0.4 0.6,-0.1 0.6,-0.1 0,0 -0.3,-0.4 -0.6,-0.2 z M 89,56.3 c -1.3,0 -2.8,0.5 -1.9,1.9 7.4,12.7 15.2,15.7 18.5,17.3 1.5,-0.7 3.9,-1.8 6.8,-3.8 1.7,-1.1 1.5,-2.8 1.1,-3.9 C 111.4,62.6 99.9,56.7 89,56.3 Z m 41.7,-23.7 c -3,-2.1 -10.4,-5.9 -25.1,-5.9 -5.1,0 -9.4,0.5 -12.8,1.2 0.8,1.3 1.2,2.8 1.2,4.4 0,2.2 -0.8,4.2 -2.1,5.7 0.3,0.1 0.7,0.2 1.2,0.3 l 0.2,-0.5 c 0,0 0.2,0 0.3,0.1 0,-0.5 0.3,-0.5 0.3,-0.5 0,0 0,-0.1 0.1,-0.1 0.5,0.1 1.9,0.8 2.5,1.1 0.6,0.3 0.6,0.4 0.6,0.4 0,0 1.4,0 1.8,-0.1 0.4,0 1.1,-0.3 2.1,-0.6 1,-0.3 1.2,-0.4 1.4,-0.4 0.2,0 2,0.1 3.6,0.3 1.6,0.2 3.1,0.8 3.4,1 l 0.5,0.1 0.1,-0.3 -0.8,-0.3 c 0,0 0.1,-0.5 0.1,-0.6 0,-0.1 0.1,-0.2 0.2,-0.2 0.1,0 1,0.2 1.3,0.3 0.3,0.1 1.3,0.8 1.4,0.8 0.1,0 0.1,0.1 0.1,0.1 0,0.2 -0.2,0.6 -0.2,0.6 l -0.3,-0.1 0.3,0.1 c 0,0 0.3,0.1 0.4,0.2 0.1,0.1 0.4,0.3 0.7,0.6 0.3,0.2 0.2,0.5 0.2,0.5 l 0.7,0.7 0,0.3 1.7,1.7 0,0.1 -0.8,0.5 c 0,0 1.1,-0.1 1.9,0.3 0.8,0.4 0.9,0.6 0.9,0.8 -0.2,0.1 -0.5,0.2 -0.5,0.2 -0.6,0.2 -2.1,1.2 -2.1,1.2 l 0,0.1 0.8,0.2 c 0.9,-0.8 2.5,-1.1 3.7,-0.9 4.1,0.8 6.9,3.5 7.5,5.8 0,0.1 0.1,0.3 0.1,0.4 4.1,-9.6 3.7,-16.5 3.4,-19.6 z m -14.4,14.6 c 0.1,0.1 0.2,0.1 0.3,0.2 0.6,0.4 0.9,0.6 1,1.5 0.1,0.7 -0.1,1.7 -0.6,2.6 2.8,1.9 6.7,0.4 8.2,1.9 -0.3,-3.8 -5.9,-7.6 -8.9,-6.2 z m -23,-4.9 -0.2,0.1 0,0.8 0.2,-0.1 0,-0.8 z m 28.9,12.4 c -2.1,0 -4.2,-0.7 -5.7,-2.5 l 0,0.1 c -0.9,1.2 -1.9,1.2 -2.3,1.2 -0.4,0 -1.7,-0.6 -2.2,-1.2 -0.5,-0.6 -0.5,-1.7 -0.5,-1.7 l -2,-0.7 -2.5,-1.4 -0.4,-0.1 c -0.8,0.4 -1.8,0.1 -2.7,-0.6 -0.1,0.4 -0.6,1.4 -1.2,1.9 -0.6,0.5 -1.8,1.2 -2.7,1.2 -0.9,0 -2.9,-1 -3.5,-2.4 -0.6,-1.4 0,-2.9 0,-2.9 l -1,-0.2 -0.4,-0.5 c 0,0 -1.2,1 -2.5,0.6 C 91.3,45.1 90.2,44 89.9,43 89.7,42 90,41.1 90.1,41 89.9,40.3 89.9,39.9 89.9,39.9 l -0.1,0 0,-0.3 c -1.3,0.9 -2.8,1.3 -4.4,1.3 -1.8,0 -3.5,-0.6 -4.9,-1.5 0.2,2.2 0.8,4.8 1.6,7.7 1.1,4 4.7,5.3 10.1,6.2 11.9,1.9 23.3,11 22.5,16.6 3,-2.5 6.2,-6.2 9.4,-11.7 1.3,-2.1 0.1,-3.5 -1.9,-3.5 z M 90.4,40.9 90.3,42 l 0.7,0 0,-0.1 -0.1,0 0,-0.1 -0.1,0 0.1,-0.2 0.1,-0.5 -0.1,-0.1 0,-0.2 0.1,-0.1 0.1,-1.2 -0.5,-0.3 c 0.2,-0.8 0.7,-1.5 0.7,-1.5 l -0.3,0 c -0.5,0.6 -0.7,1.4 -0.7,1.4 0,0 -0.1,1.3 -0.1,1.5 0,0.3 0.2,0.3 0.2,0.3 z m 11,6.7 0.5,1.6 c 1,-0.7 1.2,-1.8 1.2,-1.8 l -1.6,0.1 -0.1,0.1 z m 0.9,-2.5 -0.8,1.4 0.1,0.1 1.6,0.1 c 0,-1.1 -0.9,-1.6 -0.9,-1.6 z m -10,-3.1 -0.1,0.6 0.1,0 0,-0.6 z m 7.6,3.8 0.8,0.6 0.2,-0.1 0.9,-1.4 c -1.1,-0.1 -1.9,0.9 -1.9,0.9 z m -7.4,-3.7 -0.1,-0.1 0,0.7 0.1,0 0,-0.6 z m 0.3,0.2 -0.1,0.7 0.1,0 0,-0.7 z m 0.2,0.1 -0.1,0.7 0.1,0 0,-0.7 z m -0.4,-0.2 -0.1,0.7 0.1,0 0,-0.7 z"
       class="st1"
       style="fill:#008de0;fill-opacity:1"
       inkscape:connector-curvature="0" />
    <linearGradient
       gradientTransform="matrix(1,0,0,-1,0,103.8)"
       y2="72.949997"
       x2="130.763"
       y1="72.949997"
       x1="92.800003"
       gradientUnits="userSpaceOnUse"
       id="SVGID_3_">
      <stop
         id="stop26"
         stop-color="#FFF"
         offset="0" />
      <stop
         id="stop28"
         stop-opacity="0"
         stop-color="#FFF"
         offset="1" />
    </linearGradient>
    <radialGradient
       gradientUnits="userSpaceOnUse"
       gradientTransform="matrix(1,0,0,-1,0,103.8)"
       r="8.2860003"
       cy="73.999001"
       cx="83.728996"
       id="SVGID_4_">
      <stop
         id="stop33"
         stop-color="#FFF"
         offset="0" />
      <stop
         id="stop35"
         stop-color="#7a7a7a"
         offset=".679" />
      <stop
         id="stop37"
         stop-color="#404040"
         offset="1" />
    </radialGradient>
    <circle
       id="circle40"
       r="6.1999998"
       cy="32.299999"
       cx="85.400002"
       class="st4"
       style="fill:#828282;fill-opacity:1" />
  </g>
</svg>
