<?xml version="1.0" encoding="utf-8"?>
<!-- Generator: Adobe Illustrator 16.0.0, SVG Export Plug-In . SVG Version: 6.00 Build 0)  -->
<!DOCTYPE svg PUBLIC "-//W3C//DTD SVG 1.1//EN" "http://www.w3.org/Graphics/SVG/1.1/DTD/svg11.dtd">
<svg version="1.1" id="Layer_1" xmlns="http://www.w3.org/2000/svg" xmlns:xlink="http://www.w3.org/1999/xlink" x="0px" y="0px"
	 width="500px" height="500.009px" viewBox="-50 -50.005 500 500.009" enable-background="new -50 -50.005 500 500.009"
	 xml:space="preserve">
<linearGradient id="SVGID_1_" gradientUnits="userSpaceOnUse" x1="255.3994" y1="-433.8438" x2="144.5989" y2="53.8451" gradientTransform="matrix(1 0 0 -1 0 10)">
	<stop  offset="0" style="stop-color:#5D1F0E"/>
	<stop  offset="1" style="stop-color:#D09737"/>
</linearGradient>
<path fill="url(#SVGID_1_)" d="M262.044-42.239C370.097-14.644,450,83.344,450,199.998c0,2.661-0.057,5.311-0.143,7.951
	l-168.151-23.916c-4.922-25.338-21.333-46.556-43.594-58.045L262.044-42.239z M125.99,161.88
	c11.488-22.261,32.707-38.67,58.043-43.593l23.92-168.153c-2.643-0.083-5.29-0.139-7.953-0.139
	c-116.652,0-214.639,79.898-242.235,187.953L125.99,161.88z M161.883,274.008c-22.259-11.489-38.67-32.71-43.592-58.045
	l-168.152-23.92c-0.083,2.643-0.139,5.293-0.139,7.955c0,116.648,79.898,214.637,187.952,242.233L161.883,274.008z M274.01,238.113
	c-11.49,22.261-32.707,38.669-58.046,43.593l-23.919,168.158c2.643,0.083,5.292,0.14,7.954,0.14
	c116.653,0,214.64-79.901,242.232-187.955L274.01,238.113z"/>
<radialGradient id="SVGID_2_" cx="98.1919" cy="-198.356" r="425.9871" fx="92.7565" fy="-199.4834" gradientTransform="matrix(0.9774 0.2114 0.1266 -0.5851 -77.0301 -167.3707)" gradientUnits="userSpaceOnUse">
	<stop  offset="0" style="stop-color:#FFFFFF;stop-opacity:0"/>
	<stop  offset="0.4657" style="stop-color:#FFFFFF;stop-opacity:0.0804"/>
	<stop  offset="0.9861" style="stop-color:#FFFFFF;stop-opacity:0.2143"/>
	<stop  offset="1" style="stop-color:#FFFFFF;stop-opacity:0"/>
</radialGradient>
<path fill="url(#SVGID_2_)" d="M262.044-42.239C370.097-14.644,450,83.344,450,199.998c0,2.661-0.057,5.311-0.143,7.951
	l-168.151-23.916c-4.922-25.338-21.333-46.556-43.594-58.045L262.044-42.239z M125.99,161.88
	c11.488-22.261,32.707-38.67,58.043-43.593l23.92-168.153c-2.643-0.083-5.29-0.139-7.953-0.139
	c-116.652,0-214.639,79.898-242.235,187.953L125.99,161.88z M161.883,274.008c-22.259-11.489-38.67-32.71-43.592-58.045
	l-168.152-23.92c-0.083,2.643-0.139,5.293-0.139,7.955c0,116.648,79.898,214.637,187.952,242.233L161.883,274.008z M274.01,238.113
	c-11.49,22.261-32.707,38.669-58.046,43.593l-23.919,168.158c2.643,0.083,5.292,0.14,7.954,0.14
	c116.653,0,214.64-79.901,242.232-187.955L274.01,238.113z"/>
</svg>
