<?xml version="1.0" encoding="UTF-8" standalone="no"?>
<!-- Created with Inkscape (http://www.inkscape.org/) -->

<svg
   xmlns:dc="http://purl.org/dc/elements/1.1/"
   xmlns:cc="http://creativecommons.org/ns#"
   xmlns:rdf="http://www.w3.org/1999/02/22-rdf-syntax-ns#"
   xmlns:svg="http://www.w3.org/2000/svg"
   xmlns="http://www.w3.org/2000/svg"
   xmlns:sodipodi="http://sodipodi.sourceforge.net/DTD/sodipodi-0.dtd"
   xmlns:inkscape="http://www.inkscape.org/namespaces/inkscape"
   id="svg2"
   version="1.1"
   inkscape:version="0.48.4 r9939"
   width="185"
   height="182"
   sodipodi:docname="The Outsider's Mark.svg">
  <metadata
     id="metadata8">
    <rdf:RDF>
      <cc:Work
         rdf:about="">
        <dc:format>image/svg+xml</dc:format>
        <dc:type
           rdf:resource="http://purl.org/dc/dcmitype/StillImage" />
        <dc:title />
      </cc:Work>
    </rdf:RDF>
  </metadata>
  <defs
     id="defs6" />
  <sodipodi:namedview
     pagecolor="#ffffff"
     bordercolor="#666666"
     borderopacity="1"
     objecttolerance="10"
     gridtolerance="10"
     guidetolerance="10"
     inkscape:pageopacity="0"
     inkscape:pageshadow="2"
     inkscape:window-width="1920"
     inkscape:window-height="1018"
     id="namedview4"
     showgrid="false"
     inkscape:zoom="2.5934066"
     inkscape:cx="133.0299"
     inkscape:cy="140.78936"
     inkscape:window-x="-8"
     inkscape:window-y="-8"
     inkscape:window-maximized="1"
     inkscape:current-layer="layer2" />
  <g
     inkscape:groupmode="layer"
     id="layer2"
     inkscape:label="Main"
     style="display:inline"
     sodipodi:insensitive="true">
    <g
       id="g3850"
       transform="matrix(0.36508258,0,0,0.36508258,-161.70869,27.330417)">
      <path
         transform="matrix(3.1122928,0,0,3.1122928,399.13264,-113.39042)"
         d="m 128.14812,103.81601 a 5.1122923,5.1122923 0 1 1 -10.22458,0 5.1122923,5.1122923 0 1 1 10.22458,0 z"
         sodipodi:ry="5.1122923"
         sodipodi:rx="5.1122923"
         sodipodi:cy="103.81601"
         sodipodi:cx="123.03583"
         id="path3774"
         style="fill:none;stroke:#000000;stroke-width:4.44082451;stroke-linecap:round;stroke-linejoin:round;stroke-miterlimit:4;stroke-opacity:1;stroke-dasharray:none"
         sodipodi:type="arc" />
      <path
         sodipodi:type="arc"
         style="fill:#000000;fill-opacity:1;stroke:#ff8282;stroke-width:0;stroke-linecap:round;stroke-linejoin:round;stroke-miterlimit:4;stroke-opacity:1;stroke-dasharray:none"
         id="path3795"
         sodipodi:cx="123.03583"
         sodipodi:cy="103.81601"
         sodipodi:rx="5.1122923"
         sodipodi:ry="5.1122923"
         d="m 128.14812,103.81601 a 5.1122923,5.1122923 0 1 1 -10.22458,0 5.1122923,5.1122923 0 1 1 10.22458,0 z"
         transform="matrix(3.6832266,0,0,3.6832266,216.41397,-172.80603)" />
      <path
         sodipodi:nodetypes="sssssssssssssss"
         inkscape:connector-curvature="0"
         id="path3797"
         d="m 770.05106,157.1096 c -4.78601,2.48845 16.74613,-23.2694 26.53348,-29.93329 31.16372,-21.21833 64.54828,-38.217419 95.48291,-59.878232 18.33962,-12.841626 3.84152,4.021605 -13.45289,26.119628 -9.40242,12.014004 -33.65897,26.189344 -33.65897,34.352484 0,13.32943 16.12841,22.02868 16.12841,87.93142 0,71.38449 -40.07641,104.42539 -40.07641,118.44997 0,12.72233 64.18214,82.14822 64.18214,82.14822 12.15469,15.56347 -35.23108,-17.07618 -45.27569,-26.70853 -56.51139,-54.19199 -73.57823,-69.51181 -75.50557,-73.01978 -6.84801,-12.46415 -11.60149,-22.64994 -11.73782,-25.47501 -0.26191,-5.42739 26.89708,23.6076 44.09398,23.6076 20.25934,0 43.45961,-61.70136 43.45961,-102.8798 0,-44.25749 -9.36115,-75.94429 -25.10274,-75.69398 -3.94806,0.0628 -30.3812,13.34168 -45.07044,20.9793 z"
         style="fill:#000000;fill-opacity:1;stroke:#000000;stroke-width:0;stroke-linecap:butt;stroke-linejoin:miter;stroke-miterlimit:4;stroke-opacity:1;stroke-dasharray:none" />
      <path
         sodipodi:nodetypes="cccsssssssssscssccc"
         inkscape:connector-curvature="0"
         id="path3799"
         d="m 594.63882,170.02884 c 5.84488,7.80298 9.35125,12.22701 8.55459,36.03386 9.85055,-6.7649 22.81283,-9.50011 36.98815,-7.21061 -2.87271,-3.81533 -6.25245,-9.07846 -6.25245,-14.27723 0,-8.97378 20.70562,-21.47996 35.29418,-21.47996 26.34109,0 46.54933,24.23365 46.54933,47.68345 0,21.78793 -20.94925,45.78691 -45.55574,45.78691 -20.59384,0 -35.72703,-12.85427 -39.83199,-28.17422 -0.62346,-2.32677 -54.22064,57.36963 -61.35445,69.72575 -11.85291,20.52985 -45.56454,70.93198 -27.98677,55.0264 52.54374,-47.54527 89.87063,-85.66234 92.02183,-84.42031 9.47002,5.46752 17.04375,10.19281 37.46184,10.19281 48.90267,0 68.12438,-46.07929 68.12438,-67.98779 0,-18.22489 -7.8006,-34.10203 -7.8006,-34.10203 C 787.03543,119.48989 850.67225,51.365425 907.33333,-8.5479029 920.10355,-22.05111 951.55956,-76.325074 944.52981,-69.484607 886.11367,-12.641323 783.12476,76.646721 703.39116,150.18153 c -21.97863,-13.88017 -62.55912,-15.16999 -91.35039,20.52895 -5.72734,0.54531 -9.36082,0.40898 -17.40195,-0.68164 z"
         style="fill:#000000;fill-opacity:1;stroke:#000000;stroke-width:0;stroke-linecap:butt;stroke-linejoin:miter;stroke-miterlimit:4;stroke-opacity:1;stroke-dasharray:none" />
      <path
         sodipodi:nodetypes="sssssss"
         inkscape:connector-curvature="0"
         id="path3820"
         d="m 513.05925,318.12621 c -0.46781,3.60616 9.80184,-15.14231 20.82092,-32.71427 11.2464,-17.93448 23.7051,-34.62314 26.07803,-38.69084 3.72928,-6.39287 -39.78185,11.7314 -57.59265,29.54215 -3.2624,3.2624 2.32475,1.67362 8.7122,-1.29496 9.26364,-4.30531 21.4869,-11.3001 21.4869,-8.83335 0,3.08476 -14.74748,15.31407 -19.5054,51.99127 z"
         style="fill:#000000;fill-opacity:1;stroke:none" />
      <path
         sodipodi:nodetypes="sscss"
         inkscape:connector-curvature="0"
         id="path3822"
         d="m 457.40543,85.228675 c 12.83939,5.749269 59.30989,23.532855 70.10936,29.767935 21.77819,12.57364 40.47606,30.14946 62.3696,43.68139 -13.55685,-1.62133 -29.34402,-3.2034 -35.22799,-6.86255 C 486.95952,109.71559 424.36865,70.435343 457.40543,85.228675 z"
         style="fill:#000000;fill-opacity:1;stroke:#000000;stroke-width:0;stroke-linecap:butt;stroke-linejoin:miter;stroke-miterlimit:4;stroke-opacity:1;stroke-dasharray:none" />
      <path
         sodipodi:nodetypes="ssssssssccsssssss"
         inkscape:connector-curvature="0"
         id="path3761"
         d="m 603.33902,141.48135 c -17.62507,1.11537 -33.83329,-19.12479 -76.24674,-59.114587 -35.78554,-33.740625 -63.04937,-67.607743 -80.1367,-93.610843 -8.23014,-12.524425 58.00879,39.79532 75.52961,54.111356 23.11047,18.883272 48.93937,57.016314 60.46275,57.016314 9.37796,0 18.10536,-10.336813 36.74926,-18.200523 12.22572,-5.156619 27.31689,-9.016669 54.54486,-9.016669 22.54593,0 32.84657,6.826123 40.29621,6.826123 21.47367,0 34.03988,-36.871342 47.57916,-52.472993 -4.5044,-0.864407 -17.95779,1.16855 -16.92324,0.133999 l 55.53028,-47.169393 c 7.95725,-6.759169 -29.24404,64.474133 -55.85232,114.193482 -4.63319,8.657424 -24.62438,27.816694 -24.62438,25.825154 0,-6.23688 -0.29704,-11.65132 -3.76606,-15.2196 -7.51044,-7.725311 -28.77957,-10.939911 -47.09047,-10.939911 -34.00693,0 -76.48073,21.015001 -76.48073,32.164321 0,7.23696 13.27464,15.29365 10.42851,15.47377 z"
         style="fill:#000000;fill-opacity:1;stroke:#000000;stroke-width:0;stroke-linecap:butt;stroke-linejoin:miter;stroke-miterlimit:4;stroke-opacity:1;stroke-dasharray:none" />
      <path
         sodipodi:nodetypes="ssssssssssssss"
         inkscape:connector-curvature="0"
         id="path3763"
         d="M 596.40606,81.531637 C 580.89462,77.375359 580.6104,74.693021 570.0496,58.178498 563.22549,47.507246 553.49375,31.964833 549.17659,21.798165 c -9.48075,-22.32662317 -18.4894,-44.339255 -25.367,-64.930094 -4.84042,-14.491755 54.35776,76.425773 59.00968,76.425773 26.53905,0 24.20006,-14.030328 86.43278,-15.938917 18.6197,-0.57104 16.88473,1.354046 27.90178,1.354046 10.7466,0 14.54477,-10.9656727 23.78588,-18.82897102 12.12295,-10.31547398 20.14307,-17.95532198 15.03066,-3.78034168 -9.86313,27.3471487 -14.75822,59.2461537 -31.4917,70.0707017 -2.32791,1.505873 1.73617,-15.935503 -2.44476,-20.162328 -6.19002,-6.25796 -19.23479,-7.241622 -35.29337,-7.241622 -46.58067,0 -74.49422,15.745131 -74.80925,25.437874 -0.28046,8.628326 7.1194,18.035977 4.47477,17.327351 z"
         style="fill:#000000;fill-opacity:1;stroke:#000000;stroke-width:0;stroke-linecap:butt;stroke-linejoin:miter;stroke-miterlimit:4;stroke-opacity:1;stroke-dasharray:none" />
      <path
         sodipodi:nodetypes="ssss"
         inkscape:connector-curvature="0"
         id="path3835"
         d="m 559.18802,269.87532 c -10.67404,6.16266 -23.81299,18.85163 -29.57573,33.00815 -1.0821,2.65823 10.63084,-4.4113 18.12288,-14.26694 6.16079,-8.10442 15.21331,-20.91231 11.45285,-18.74121 z"
         style="fill:#000000;fill-opacity:1;stroke:#000000;stroke-width:0;stroke-linecap:butt;stroke-linejoin:miter;stroke-miterlimit:4;stroke-opacity:1;stroke-dasharray:none" />
      <path
         sodipodi:nodetypes="sssss"
         inkscape:connector-curvature="0"
         id="path3837"
         d="m 587.83285,248.78949 c -8.98785,6.44157 -13.06651,8.82497 -21.16168,19.16271 -4.99945,6.38444 -10.60935,13.22115 -13.33805,20.4199 -2.05392,5.41857 16.45902,-9.30894 18.79082,-13.34774 2.62393,-4.54478 24.63282,-32.63062 15.70891,-26.23487 z"
         style="fill:#000000;fill-opacity:1;stroke:#000000;stroke-width:0;stroke-linecap:butt;stroke-linejoin:miter;stroke-miterlimit:4;stroke-opacity:1;stroke-dasharray:none" />
    </g>
  </g>
</svg>
