<?xml version="1.0" encoding="UTF-8" standalone="no"?>
<svg
   xmlns:dc="http://purl.org/dc/elements/1.1/"
   xmlns:cc="http://creativecommons.org/ns#"
   xmlns:rdf="http://www.w3.org/1999/02/22-rdf-syntax-ns#"
   xmlns:svg="http://www.w3.org/2000/svg"
   xmlns="http://www.w3.org/2000/svg"
   viewBox="0 0 670.03748 275.28751"
   height="275.28751"
   width="670.03748"
   xml:space="preserve"
   version="1.1"
   id="svg2"><metadata
     id="metadata8"><rdf:RDF><cc:Work
         rdf:about=""><dc:format>image/svg+xml</dc:format><dc:type
           rdf:resource="http://purl.org/dc/dcmitype/StillImage" /></cc:Work></rdf:RDF></metadata><defs
     id="defs6" /><g
     transform="matrix(1.25,0,0,-1.25,0,275.2875)"
     id="g10"><g
       transform="scale(0.1,0.1)"
       id="g12"><path
         id="path14"
         style="fill:#d70926;fill-opacity:1;fill-rule:nonzero;stroke:none"
         d="m 2897.05,498.648 c 1.19,6.043 2.12,12.172 4.08,17.954 2.81,8.23 6.46,16.136 9.69,24.16 2.4,5.898 4.86,11.758 7.01,17.718 2.05,5.719 4.22,11.329 7.97,16.149 2.52,3.281 5.09,6.48 7.65,9.73 0.3,0.391 0.67,0.86 0.98,1.27 3.69,2.711 7.85,5.762 13.1,9.473 -0.21,1.66 -0.46,3.007 -0.58,4.367 -0.92,10.57 -1.82,35.429 -2.72,45.98 -1.87,22.192 -3.73,44.383 -5.6,66.563 -0.72,8.558 -1.37,17.129 -2.09,25.687 -1.17,13.75 -2.38,27.481 -3.58,41.211 -0.78,9.309 -1.52,18.629 -2.28,27.891 -0.8,9.648 -1.56,19.258 -2.35,28.871 -0.21,2.957 -0.27,5.91 -0.56,8.898 -0.98,10.102 -2.07,20.262 -3.01,30.352 -0.76,8.25 -1.35,16.488 -2.05,24.769 -0.78,9.688 -1.72,19.411 -2.42,29.098 -0.53,7.52 -0.8,15.043 -1.17,22.582 -0.14,2.848 -0.22,5.719 -0.34,8.57 -0.15,4.36 -0.29,8.688 -0.48,13.028 -0.12,2.32 -0.39,4.672 -0.45,6.972 -0.41,15.821 -0.75,31.619 -1.16,47.419 -0.25,8.81 -0.46,17.6 -0.95,26.37 -0.47,8.69 -0.96,17.38 -2.03,26.02 -2.17,17.78 -4.77,35.51 -7.15,53.26 -2.62,19.22 -5.24,38.44 -7.8,57.66 -0.8,6.07 -1.34,12.23 -2.14,18.34 -1.78,13.2 -14.4,89.98 -14.4,89.98 0,0 -0.92,-9.94 -2.15,-13.87 -0.17,-0.6 -0.19,-1.28 -0.11,-1.87 0.29,-2.44 8.49,-134.45 9.33,-147.58 0.9,-13.79 1.64,-27.54 2.66,-41.29 0.72,-10.14 1.83,-20.28 2.71,-30.41 0.34,-3.71 0.63,-7.41 0.96,-11.12 -0.37,0.82 -0.72,1.51 -1.09,2.01 -1.53,2.19 -4.01,6.25 -7,11.33 -0.19,1.98 3.23,-106.87 3.23,-106.87 l -27.82,265.96 c 0,0 -9.21,-21.17 -12.67,-44.06 -1.1,-7.25 -12.7,-25.06 -12.7,-25.06 0,0 0.1,-3.05 0.3,-8.26 -0.37,-4.46 -0.71,-8.64 -1,-12.76 -0.37,-4.84 -0.61,-9.72 -1.02,-14.59 -0.91,-11.21 -1.91,-22.4 -2.85,-33.62 -0.78,-9.29 -1.52,-18.61 -2.26,-27.91 -0.76,-9.08 -1.68,-18.16 -2.17,-27.26 -0.31,-5.49 -0.06,-11.04 0.12,-16.56 0.54,-16.72 1.36,-33.501 1.75,-50.278 0.22,-10.133 -0.39,-20.332 0.26,-30.492 0.78,-12.399 1.03,-24.782 -0.76,-37.16 -0.92,-6.27 -0.86,-12.68 -1.25,-19.008 -0.18,-3.223 -0.3,-6.383 -0.57,-9.551 -0.31,-3.379 -0.66,-6.742 -1.19,-10.082 -0.57,-3.629 -1.45,-7.238 -2.05,-10.91 -2.72,-16.41 -5.37,-32.86 -8.01,-49.278 -0.96,-5.98 -1.95,-11.921 -2.71,-17.91 -0.92,-7.461 -1.61,-14.922 -2.39,-22.422 -0.51,-5.039 -1.15,-10.097 -1.56,-15.16 -0.43,-5.41 -0.61,-10.84 -1,-16.23 -0.41,-5.918 -1.27,-11.821 -1.44,-17.731 -0.47,-18.769 -0.72,-37.558 -1.1,-56.328 -0.21,-10.801 0.43,-35.219 -1.17,-46.551 -0.27,-1.148 -0.35,-2.007 0,-2.199 -1.38,-11.469 6.04,-8.789 21.29,-21.551 -0.08,-0.211 -0.17,-0.5 -0.27,-0.66 0.96,-0.84 1.74,-1.89 2.77,-2.539 1.86,-1.09 3.5,-2.379 5.02,-3.828 0.02,0 0.02,-0.023 0.04,-0.043 1.5,-1.418 2.91,-2.98 4.26,-4.617 6.58,-7.82 10.92,-16.942 13.81,-26.613 1.7,-5.598 2.09,-11.661 2.69,-17.539 0.63,-6.11 0.72,-12.301 1.25,-18.391 0.51,-5.918 1.35,-11.797 1.97,-17.719 1.16,-11.289 1.18,-8.379 2.62,-19.648 0.71,-5.473 1.15,-10.992 1.55,-16.524 -2.68,-9.769 -5.16,-23.218 -6.7,-41.816 -0.51,-6.34 -1.27,-12.301 -2.17,-17.973 -0.04,0.59 -0.06,1.18 -0.1,1.762 -0.66,8.148 -1.48,16.269 -2.17,24.418 -0.88,10.332 -4.02,22.59 -5.19,32.891 -0.94,8.082 0,0 -1.35,8.039 -0.12,0.671 -0.37,1.312 -0.55,1.961 -0.52,-1.622 -0.52,-3.188 -0.52,-4.75 0.03,-2.622 -0.73,-5 -2.13,-7.188 -1.2,-1.832 -2.21,-3.82 -3.3,-5.762 -0.84,-1.48 -1.53,-3.082 -2.64,-4.332 -5.08,-5.75 -9.53,-12.148 -16.08,-16.508 -0.13,-0.082 -0.17,-0.371 -0.19,-0.41 0.8,-2.89 1.7,-8.531 3.36,-13.769 5.17,-16.27 5.17,-16.27 6.68,-26.11 0.74,-4.711 1.03,-9.453 1.58,-14.222 0.84,-7.34 2.01,-14.688 2.56,-22.071 0.55,-7.597 0.55,-15.25 0.74,-22.886 0.14,-5.41 0,-10.84 0.31,-16.25 0.12,-1.801 0.18,-3.582 0.26,-5.371 -0.39,-5.243 -0.63,-10.711 -0.55,-16.532 0.02,-2.027 0.08,-4.25 0.2,-6.621 -0.38,-3.136 -0.9,-6.289 -1.64,-9.406 -0.84,-3.613 -1.63,-7.012 -4.77,-9.32 0.68,-2.891 1.33,-5.352 1.87,-7.813 2.66,-12.23 5.22,-24.469 8.81,-36.437 0.94,-3.133 1.8,-6.332 2.48,-9.543 0.96,-4.66 1.64,-9.367 2.58,-14.059 0.14,-0.64 0.35,-1.269 0.51,-1.89 2.05,-13.188 4.14,-25.122 6.07,-34.2 0.04,-0.16 -0.02,-0.281 0.02,-0.429 0.12,-0.352 0.22,-0.719 0.32,-1.102 0.21,-0.969 0.43,-2.027 0.64,-2.937 -0.06,-0.832 0.31,-1.633 0.88,-2.5 1,-3.422 2.05,-6.821 2.87,-10.301 1.54,-6.332 2.68,-12.813 4.12,-19.242 1.29,-5.739 2.81,-11.5 4.1,-17.258 1.59,-7.051 2.93,-14.1213 4.51,-21.1526 2.27,-10.0195 4.34,-20.0976 7.06,-30 2.1,-7.6796 5.02,-15.1367 7.65,-22.6601 3.22,-9.3164 6.51,-18.5899 9.75,-27.86721 0.25,-0.72265 0.64,-1.41015 1.21,-2.62109 0.45,3.80859 0.82,6.96875 1.21,10.1211 0.96,7.5586 1.95,15.1484 2.89,22.7305 1,8.0898 1.93,16.207 2.91,24.2968 0.65,5.3516 1.41,10.7422 2.03,16.0938 0.65,5.5664 1.1,11.1797 1.78,16.7187 0.53,4.3008 1.56,8.5586 1.95,12.8481 0.67,7.273 0.96,14.613 1.51,21.902 0.17,2.539 0.11,5.25 1.01,7.519 1.62,4 2.11,8.18 2.91,12.34 1.47,7.461 2.95,14.918 4.4,22.27 -0.14,0.148 -0.28,0.308 -0.41,0.449 0.58,3.609 1.19,7.691 1.77,12.301 3.05,15.351 5.69,41.172 8.46,56.25 1.6,8.73 2.7,17.582 3.83,26.39 0.82,6.309 1.31,12.649 2.03,18.981 1.41,12.187 2.89,24.379 4.34,36.598 0.82,7.043 1.64,14.089 2.36,21.16 0.9,8.511 2.05,17.07 2.46,25.621 0.98,19.922 1.56,25.59 2.4,45.512 0.08,1.91 -0.62,2.808 -2.11,3.769 -2.81,1.828 -5.7,3.688 -8.06,6.027 -8.4,8.364 -13.99,18.582 -17.76,29.711 -1.79,5.289 -2.95,10.84 -3.92,16.352 -1,5.699 -1.41,11.539 -2.07,17.32 -0.24,0 -0.51,0.02 -0.75,0.02 -0.52,-2.34 -1.25,-4.672 -1.54,-7.051 -1.83,-15.02 -3.73,-15.801 -5.39,-30.859 -1.66,-15.192 -2.36,-30.43 -2.69,-45.7 -2.5,16.309 -5.61,32.95 -8.89,49.528 0,0.043 -0.02,0.062 -0.02,0.082 0.31,1.148 0.64,2.578 1.02,6.847 1.25,14.262 2.98,28.461 5.8,42.5 z m 304.72,101.883 -67.15,-42.051 -33.96,-55.718 c -4.53,-16.614 -11.9,-36.063 -23.89,-57.543 -0.13,-0.258 -0.17,-0.449 -0.29,-0.707 -4.04,-3.16 -7.75,-5.821 -7.75,-5.821 l -5.63,-4.55 -0.1,-1.25 c 0,0 -0.43,-3.981 -0.72,-5.961 -0.25,-1.77 -0.8,-3.532 -0.9,-5.348 -0.51,-8.203 -0.99,-16.5 -1.37,-24.762 -0.7,-15.57 -1.19,-31.148 -2.01,-46.738 -0.25,-4.844 -1.33,-9.652 -2.01,-14.473 -0.68,-4.711 -1.39,-9.437 -2.15,-14.75 4.81,6.43 9.53,12.129 13.64,18.262 4.92,7.391 9.29,15.117 13.92,22.699 2.07,3.418 3.85,6.969 5.68,10.512 1.74,0.066 3.5,0.457 5.24,0.797 l 24.28,34.512 -37.23,-86.782 -9.67,-6.027 c -1.74,-3.441 -3.45,-6.883 -5.19,-10.32 -0.86,-1.703 -1.31,-3.571 -2.09,-5.313 -0.98,-2.23 -1.94,-4.469 -3.15,-6.578 -2.2,-3.812 -4.08,-7.641 -3.75,-12.25 0.06,-0.601 -0.11,-1.269 -0.19,-1.891 -1.14,-8.832 -2.56,-17.621 -3.34,-26.511 -1.17,-13.297 -3.19,-26.52 -5.57,-39.66 -1.6,-8.887 -2.64,-17.821 -2.28,-26.879 0.03,-0.981 0.15,-1.91 0.21,-2.91 0.22,0 0.41,0 0.61,0 0.82,1.878 1.64,3.75 2.42,5.652 7.46,17.59 14.86,35.207 22.32,52.789 3.5,8.258 7.01,16.559 10.63,24.777 3.9,8.934 7.59,17.973 11.93,26.66 7.01,14.012 14.47,27.782 21.78,41.641 4.72,9.012 9.31,18.031 14.22,26.922 5.21,9.488 9.27,19.488 13.34,29.508 2.26,5.551 4.08,11.332 6.27,16.953 2.38,6.207 4.94,12.348 7.44,18.539 1.81,4.508 3.77,8.98 5.49,13.508 2.26,6.062 4.31,12.152 6.5,18.211 0.96,2.691 1.99,5.371 2.99,8.039 1.6,4.363 3.22,8.711 4.74,13.09 1.72,4.882 3.64,9.75 4.97,14.73 1.71,6.641 3.39,13.301 5.07,19.941 18.28,50.942 48.89,116.622 61.31,142.731 l -44.61,-55.68 z m -657.65,525.449 c 0.02,-1.79 0.02,-3.59 -0.19,-5.39 -0.32,-2.89 -0.04,-5.7 0.78,-8.49 1.01,-3.5 1.36,-7.02 1.31,-10.67 -0.18,-14.77 -0.28,-29.51 -0.32,-44.24 0,-3.3 -0.02,-6.68 0.73,-9.84 1.89,-7.92 3.78,-15.88 6.44,-23.58 2.97,-8.55 5.96,-17.13 8.93,-25.68 -0.48,-2.738 0.51,-10.961 1.48,-19.078 l 18.75,-61.512 -35.1,84.02 c 0,-3.282 0,-6.559 0,-9.84 -0.02,-5.84 -0.05,-11.66 -0.04,-17.481 0.02,-2.617 -0.27,-5.39 0.36,-7.89 1.2,-4.821 2.26,-9.688 3.56,-14.469 l 8.21,-16.879 14.24,-42.223 31.26,-80.687 -56.28,85.078 c 0.02,-1.641 0.02,-3.277 0.1,-4.918 0.29,-6.371 0.61,-12.699 0.94,-19.063 0.11,-2.109 0.25,-4.238 0.58,-6.308 0.51,-3.36 1.51,-6.641 1.74,-10.02 0.29,-4.101 0.53,-8.211 1.25,-12.308 1.56,-8.84 2.74,-17.75 4.32,-26.582 1.15,-6.371 2.85,-12.621 4.1,-18.981 1.97,-9.961 3.55,-20.019 5.74,-29.937 0.18,-0.813 0.26,-1.59 0.41,-2.371 -0.1,-10.289 -1.5,-23.692 -0.42,-31.832 -0.11,-1.207 0.12,-2.329 0.66,-3.457 -2.39,-2.723 0.89,-66.02 0.89,-66.02 0,0 -2.34,-12.543 3.79,-52.793 0,-0.059 18.95,-25.391 20.18,-27.168 1.76,-2.601 3.98,-4.902 6.03,-7.301 8.83,-10.332 19.83,-17.718 32.21,-22.871 1.58,-0.668 3.16,-1.801 4.72,-3.09 12.27,-17.418 26.55,-35.269 31.3,-33.828 0.02,0.078 -0.59,1.348 -1.31,3.598 l 0.02,-0.02 c -0.33,5.86 -2.36,14.45 -2.36,21.461 0,7.012 0.9,10.121 2.36,16.211 2.32,9.649 4.8,17.719 7.32,24.481 0.32,0.597 0.53,1.258 0.88,1.867 0.51,0.883 0.72,1.68 0.86,2.5 4.88,11.891 9.71,19.082 13.5,23.34 2.29,2.172 4.68,4.242 7.24,6.113 1.64,1.18 1.42,2.559 1.07,4.199 -2.61,12.438 -5.77,39.008 -7.1,51.699 -0.74,7.168 -2.35,14.239 -3.48,21.329 -1.7,10.8 -3.14,21.621 -5.1,32.363 -0.91,5.199 -2.3,10.348 -4.16,15.297 -2.28,5.91 -5.47,11.461 -7.91,17.32 -1.89,4.57 -3.63,9.281 -4.84,14.082 -2.62,10.469 -4.81,21.059 -7.25,31.559 -1.34,5.769 -2.63,11.59 -4.25,17.269 -4.46,15.571 -9.01,31.11 -13.6,46.68 -2.69,9.141 -5.54,18.223 -8.22,27.32 -1.86,6.313 -3.97,12.582 -5.24,19.012 -3.22,16.66 -9.8,32.168 -15.29,48.059 -3.65,10.511 -7.87,20.812 -11.29,31.371 -3.26,10.079 -5.74,20.389 -8.69,30.589 -7.52,26.15 -15.14,52.3 -22.62,78.46 -3.28,11.31 -6.34,22.64 -9.47,33.98 -0.39,1.31 -0.55,2.7 -0.97,4.03 -0.81,2.54 -1.86,5 -2.6,7.58 -1.02,3.53 -1.68,7.18 -2.76,10.72 -1.99,6.7 -4.16,13.34 -6.29,20 -0.05,0.17 -0.48,0.29 -0.8,0.47 -1.42,-2.05 -0.95,-4.36 -0.93,-6.55 0.17,-16.23 0.41,-32.44 0.62,-48.69 z m 189.41,-911.468 c -0.41,2.519 -1.17,4.629 -2.56,6.66 -0.88,1.308 -1.6,2.816 -1.95,4.297 -1.62,6.703 -3.11,13.422 -4.53,20.16 -0.32,1.461 -0.98,2.461 -2.11,3.34 -9.16,7.203 -14.46,15.543 -21.74,24.64 -0.86,1.082 -1.74,2.172 -2.62,3.25 2.66,0.129 2.42,0.621 4.9,1.321 l -2.05,2.582 -23,62.457 42.09,-72.008 c 0.04,-0.063 0.07,-0.102 0.11,-0.129 -0.04,3.348 -0.52,6.457 -1.15,9.527 -2.97,14.629 -6.05,29.243 -8.91,43.879 -1.25,6.434 -2.1,12.973 -3.04,19.442 -1,6.91 -1.9,13.859 -2.85,20.8 -0.61,4.282 -1.47,8.571 -1.9,12.872 -0.72,7.519 -1.27,14.98 -1.76,22.519 -0.76,12.168 -1.42,10.078 -2.11,22.238 -0.21,3.911 -0.23,7.84 -0.29,11.762 -0.02,1.27 -0.23,2.309 -1.54,2.828 -6.81,2.821 -12.44,7.371 -17.89,12.231 -1.33,1.172 -2.59,2.441 -3.9,3.652 -10.59,62.52 -32.22,65.629 -44.91,90.469 -20.29,13.008 -47.79,31.269 -47.79,31.269 l -38.53,31.95 c 0,0 9.66,-21.231 23.08,-50.758 1.68,-4.742 3.34,-9.492 5.08,-14.223 4.1,-11.129 8.32,-22.18 12.44,-33.301 2.81,-7.519 5.57,-15.058 8.34,-22.609 4.61,-12.539 9.22,-25.039 13.81,-37.559 2.09,-5.761 3.96,-11.621 6.19,-17.351 5.1,-12.887 10.31,-25.739 15.49,-38.61 0.82,-2.07 1.46,-4.199 2.36,-6.25 2.15,-5.058 4.42,-10.058 6.6,-15.078 2.99,-6.91 5.94,-13.851 8.89,-20.742 1.62,-3.769 3.54,-7.48 4.79,-11.41 2.48,-7.75 4.72,-15.578 6.83,-23.449 2.35,-8.828 5.55,-17.328 9.12,-25.711 0.51,-1.168 1.14,-2.278 1.78,-3.367 4.96,-8.153 10.37,-15.981 16.47,-23.332 1.5,-1.75 3.12,-3.43 4.53,-5.25 6.85,-8.872 13.62,-17.77 20.48,-26.622 4.34,-5.589 8.71,-11.148 13.16,-16.679 3.81,-4.668 7.72,-9.258 11.59,-13.867 0.64,-0.762 1.46,-1.364 2.18,-2.071 0.18,0.141 0.37,0.258 0.57,0.328 -0.23,0.879 -0.47,1.743 -0.68,2.582 -1.06,4.438 -2.37,8.848 -3.07,13.321 z m 347.58,394.886 c 1.89,-2.207 4.33,-3.91 6.78,-6.039 0.66,1.313 1.17,2.211 1.58,3.129 2.32,5.172 4.51,17.594 6.85,26.91 7.39,10.25 16.59,23.122 24.01,33.911 -4.18,-8.809 -8.36,-17.598 -12.54,-26.387 -5.37,-11.231 -8.5,-37.524 -12.72,-49.184 -0.47,-1.289 0.06,-2.129 0.69,-3.179 2.87,-4.809 5.58,-9.629 6.77,-15.278 0.1,-0.492 0.26,-0.972 0.38,-1.461 0.74,-4.199 1.73,-8.34 3.35,-12.289 0.94,-2.281 2.88,-19.742 -3.14,-46.91 l 27.36,52.988 32.03,15.86 60.47,71.793 c -10,-4.274 -18.77,-6.832 -18.92,-2.711 -0.3,7.398 0.04,50.578 0.04,50.578 l -2.33,64.5 c 0,0 -0.8,36.09 -0.8,59.941 0.02,3.731 0.06,7.461 0.08,11.192 0.08,3.75 0.2,6.699 0.37,8.199 0.14,1.121 0.04,1.168 -0.29,0.348 0.12,16.98 0.25,33.953 0.41,50.941 0.13,12.809 0.49,25.672 0.47,38.5 -0.02,6.461 -0.18,12.852 0.86,19.332 1.54,9.34 2.44,18.789 3.45,28.227 l -60.54,-140.668 14.82,55.14 c 0.06,0.328 0.12,0.641 0.18,0.981 5.93,33.82 19.45,66.617 25.68,100.386 2.64,14.352 5.64,28.572 9.04,42.732 0.32,1.39 0.59,2.81 0.94,4.2 1,4.12 2.07,8.22 3.11,12.34 -1.53,-5.49 -2.74,-11.03 -4.05,-16.54 -2.58,-11.07 -4.78,-22.23 -7.13,-33.38 -0.66,-3.1 -1.34,-6.21 -1.91,-9.352 -0.94,-5.238 -1.86,-10.468 -2.79,-15.687 l 37.05,137.679 c -0.04,0.37 0.02,0.75 -0.04,1.12 0,0.02 0,0.02 0,0.02 1.17,4.61 11.25,77.03 11.25,77.03 0,0 -33.05,-100.3 -36.68,-111.88 -2.31,-7.29 -9.45,-11.14 -11.62,-18.44 -5.06,-17.07 -72.37,-230.76 -73.17,-234.689 -1.11,-5.41 -14.57,-29.59 -15.56,-35 -3.09,-17.219 -2.68,-39.063 -7.78,-55.84 -10.48,-34.199 -10.41,-75.313 -12.77,-82.359 -1.78,-5.204 -3.73,-24.59 -5.57,-29.793 -1.03,-2.868 -2.05,-5.758 -3.08,-8.727 0.66,-0.453 1.15,-0.863 1.7,-1.152 5.35,-2.668 9.76,-6.481 13.71,-11.032" /><path
         id="path16"
         style="fill:#ffffff;fill-opacity:1;fill-rule:nonzero;stroke:none"
         d="m 2717.69,1379.89 -83.61,0 13.8,-63.98 -50.31,63.98 -170.81,0 0,379.26 -43.16,207.99 43.16,-107.71 0,186.79 -199.73,0 c 0,0 7.9,0.1 28.38,-10.9 9.96,-5.33 25.69,-16.46 33.52,-38.18 l 0,-385.64 141.37,-341.19 317.68,0.01 0,105.72 0.02,0 0,44.67 c -5.31,-10.96 -14.25,-25 -29.22,-39.71 l -1.09,-1.11 z m 915.94,208.2 -320.18,457.6 -186.35,0.12 c 0,0 7.93,0.31 28.38,-10.7 10.1,-5.38 26.04,-16.68 33.77,-38.85 l 0,-8.38 -1.23,4.61 0,-283.53 52.01,199.11 -35.62,-288.75 -16.39,-34.98 0,-313.71 22.68,0 11.68,17.89 37.42,87.44 -13.36,-100.15 -0.86,-3.05 82.64,133.75 0,387.37 229.45,-327.18 75.96,121.39 z m 60.72,171.18 139,250.52 0.02,36.51 -139.02,0 0,-287.03 z m 0,-257.97 -56,80.05 -32.93,-99.66 -21.75,-52.06 112.63,-160.58 136.84,0 0,0.06 0.04,0 0.17,674.66 -139,-363.16 0,-79.31 z m -1335,-177.76 -70.42,230.18 0,-145.59 -0.25,0 0.27,-137.83 75.46,0 -17.1,55.72 12.04,-2.48 z m -628.52,-387.27 6.69,-9.18 4.72,-11.988 -77.98,99.858 40.04,-83.44 -10.63,-4.059 30.04,-41.52 7.12,-12.679 0,-237.633 45.15,0 0,317.359 -45.15,0 0,-16.718 z M 4421.52,1700.38 4124.14,1667 c 1.42,10.21 3.45,21.54 6.42,34.02 4.38,18.3 10.74,38.87 19.9,61.12 13.91,33.71 38.27,61.29 64.22,82.65 15.08,12.42 30.57,22.66 44.51,30.8 8.6,6.33 19.81,12.8 34.2,19.42 53.56,24.63 127.56,59.31 127.56,59.31 l -0.21,-36.85 0.78,0 0,-217.09 z m 49.49,345.92 c -11.76,0 -28.12,0.09 -43.34,0 l 20.39,71.75 -201.58,-99.45 c -58.95,-21.07 -132.13,-59.84 -185.35,-130.96 -59.69,-80.91 -71.33,-174.59 -73.95,-210.87 l -0.15,-3.13 c -1.33,-14.92 -1.82,-28.52 -1.82,-40.02 l 0,0.27 -0.04,-0.7 c 0,-3.9 0.12,-7.5 0.14,-10.62 l 2.85,0.02 -2.85,-0.08 c 0.11,-3.3 0.17,-6.1 0.37,-8.63 l 0,0.17 0.08,-133.2 0.06,-210.22 136.83,0 0.08,229.89 0,40.02 30.27,3.4 29.07,14.08 91.09,85.56 -61.91,-93.1 210.58,23.67 -0.04,-133.77 0,-169.75 139.36,0 0,775.67 -2.83,0 c 0,0 -45.1,0 -87.31,0 z m -1462.19,16.58 82.82,121.23 -124.71,-49.38 -0.98,0 -28.69,-40.02 -33.3,-48.2 -64.69,0 c 0.1,-0.06 0.22,-0.13 0.3,-0.19 l -21.37,0 c 0,0 7.91,0.29 28.38,-10.69 9.96,-5.37 25.68,-16.46 33.47,-38.22 l 0,-618.79 4.65,-3.64 3.5,26.32 14.61,8.98 32.42,260.59 5.96,-163.56 19.16,-191.6 57.56,-45.12 0,775.9 -34.95,0 c 15.92,4.4 25.86,16.39 25.86,16.39 z M 3966.71,666.469 c -43.41,0 -60.78,41.66 -60.78,127.613 0,86.387 17.37,128.066 60.78,128.066 43.42,0 60.36,-41.679 60.36,-128.066 0,-85.953 -16.94,-127.613 -60.36,-127.613 z m 104.03,179.043 -0.37,-4.981 c -9.73,79.571 -46.16,120.699 -103.66,120.699 -67.71,0 -106.79,-56.871 -106.79,-166.699 0,-109.84 39.08,-167.152 106.79,-167.152 65.28,0 103.44,53.402 106.12,155.633 l -13.71,-17.68 15.02,47.309 26.15,40.968 24.02,60.223 -53.49,-68.281 -0.08,-0.039 z m -359.77,107.476 -41.19,0 0,-131.109 -115.06,0 0,131.109 -45.15,0 0,-317.359 45.15,0 0,147.16 115.06,0 0,-147.16 45.14,0 0,287.75 7.99,12.992 35.39,99.489 -46.9,-82.251 -0.43,-0.621 z m -1520.83,31.703 60.36,73.789 -42.57,0 -43.42,-73.789 25.63,0 z m -3.47,-184.082 -5.21,0 -78.59,152.379 -49.48,0 107.23,-193.179 0,-124.18 45.14,0 0,125.473 107.24,191.886 -46.46,0 -79.87,-152.379 z M 5322.3,1445.95 c -95.22,-51.61 -158.05,-71.29 -228.55,-71.35 -72.17,0.02 -136.08,32.34 -182.72,86.35 -46.5,53.98 -75.27,129.74 -75.25,215.66 0.66,152.81 100.89,258.28 241.95,258.77 64.45,-0.14 118.12,-16.45 189.35,-60.9 l 23.25,-14.57 0,169.12 -11.51,2.87 c -50.76,12.62 -97.34,21.25 -140.33,25.72 4.9,5.36 7.81,10.2 8.01,10.36 l 88.28,134.37 -134.65,-55.51 1,-2.4 -0.04,-2.26 -4.16,2.87 -0.02,0.02 -27.46,-39.87 -8.03,-12.09 -7.99,12.01 -27.52,39.93 -4.18,-2.87 -0.04,2.24 1,2.42 -134.57,55.37 88.3,-134.39 c 0.2,-0.1 4.9,-8.07 12.77,-14.88 -78.16,-15.32 -145.58,-51.53 -197.01,-104.38 -69.55,-71.4 -109.61,-172.61 -109.57,-290.8 0,-98.3 28.65,-189.22 82.09,-259.86 73.89,-95.55 192.52,-144.81 340.78,-144.65 l 1.14,0 c 67.83,0 116.97,9.55 174.78,35.74 l 5.43,2.46 73.46,175.12 -37.99,-20.62 z M 1913.15,952.988 1786.82,805.82 l 123.3,-170.191 55.56,0 -125.89,171.48 126.76,145.879 -53.4,0 z m 2478.15,-269.179 -3.04,0 c -12.6,35.613 -26.92,70.781 -42.11,104.632 l -73.36,164.547 -60.35,0 0,-317.359 38.2,0 0,274.371 3.03,0 c 10.43,-33.012 23,-65.121 37.77,-97.668 l 79.45,-176.703 58.62,0 0,317.359 -38.21,0 0,-269.179 z M 1163.97,1700.38 866.594,1667 c 1.441,10.21 3.457,21.54 6.426,34.02 4.375,18.3 10.742,38.87 19.878,61.12 13.911,33.71 38.286,61.29 64.25,82.65 15.071,12.42 30.567,22.66 44.492,30.8 8.6,6.33 19.82,12.8 34.21,19.42 53.55,24.63 127.53,59.31 127.53,59.31 l -0.22,-36.85 0.81,0 0,-217.09 z m 49.19,345.9 c -11.75,0 -28.13,0.08 -43.37,0 l 20.42,72.09 -201.565,-99.44 c -58.918,-21.07 -132.129,-59.86 -185.344,-130.97 -59.715,-80.92 -71.348,-174.57 -73.977,-210.88 l -0.136,-3.11 c -1.344,-14.94 -1.825,-28.53 -1.825,-40.04 l 0,0.3 -0.039,-0.73 c 0,-3.88 0.098,-7.5 0.137,-10.62 l 2.832,0.02 -2.832,-0.08 c 0.129,-3.3 0.207,-6.09 0.344,-8.63 l 0,0.19 0.117,-133.22 0.039,-210.21 136.812,0 0.082,229.88 0.016,40.02 299.089,33.61 -0.04,-133.75 0,-169.76 139.36,0 0,775.33 -2.81,0 c 0,0 -45.11,0 -87.31,0 z M 799.617,923.031 l 27.336,0 0,-257.441 -27.336,0 0,-29.961 99.848,0 0,29.961 -27.363,0 0,257.441 27.363,0 0,29.957 -99.848,0 0,-29.957 z m -233.301,350.059 0.996,5.1 29.668,115.02 -12.07,-7.91 c -7.652,-4.12 -16.14,-5.37 -33.426,-5.41 -9.121,0 -77.898,0.33 -91.054,0.33 -3.223,0 -6.59,-0.02 -10.071,-0.08 -5.742,0.04 -169.375,0.84 -202.754,0.84 -2.468,0 -4.238,0 -5.3,0 l -29.043,0.1 356.933,665.22 -472.1403,-0.08 -0.0195,-0.08 -0.2227,0 -26.6523,-110.25 11.996,7.81 c 7.6915,4.26 16.1993,5.51 33.5548,5.53 9.101,0 78.172,-0.35 91.348,-0.35 3.218,0 6.589,0.01 10.027,0.05 l 0.098,0 c 2.254,0 81.086,-0.39 141.203,-0.66 L 0,1273.05 l 55.9688,0.1 0,-0.06 510.3472,0 z M 1486.4,666.469 c -43.42,0 -60.78,41.66 -60.78,127.613 0,86.387 17.36,128.066 60.78,128.066 43.41,0 60.36,-41.679 60.36,-128.066 0,-85.953 -16.95,-127.613 -60.36,-127.613 z m 0,294.761 c -67.73,0 -106.8,-56.871 -106.8,-166.699 0,-109.84 39.07,-167.152 106.8,-167.152 67.73,0 106.35,57.312 106.35,167.152 0,109.828 -38.62,166.699 -106.35,166.699 z m -956.83,-286.519 -24.304,0 0,239.199 24.304,0 c 70.325,0 100.711,-35.609 100.711,-119.379 0,-83.793 -30.386,-119.82 -100.711,-119.82 z m 3.914,278.277 -73.367,0 0,-317.359 73.367,0 c 93.34,0 142.825,54.703 142.825,158.902 0,104.18 -49.485,158.457 -142.825,158.457 z m 612.126,-263.09 -3.9,0 -79.44,263.09 -44.72,0 102.01,-317.359 47.74,0 102.47,317.359 -44.7,0 -79.46,-263.09 z m 926.82,546.812 2.79,-1.6 c 4.97,-3.47 9.95,-6.92 14.97,-10.31 l 38.4,-58.56 57.11,-80.42 -35.48,92.22 -4.68,5.22 c -5.12,5.22 -24.85,27.65 -24.85,27.65 l -4.24,7.4 c 0.1,-0.18 -0.82,5.15 -0.82,5.15 l -12.5,31.88 -14.85,31.74 31.03,-35.45 13.82,-30.54 0,125.42 c -30.84,23.95 -60.88,49.28 -89.63,74.96 l -5.02,4.48 c -43.71,39.23 -84.53,78.88 -121.35,114.59 -20.49,19.88 -46,48.57 -70.51,75.64 -15.85,17.46 -31.19,34.2 -45.17,47.97 l -2.91,2.83 334.59,381.31 -171.81,-0.1 -277.37,-309.47 -1.09,-1.08 -43.17,0 0,0.06 -42.9,0 -138.65,131.85 0,-131.93 -0.05,0 0,-131.79 0.05,-336.19 138.65,0 0,340 64.2,0 0.83,-0.43 c 16.04,-8.46 40.05,-30.02 66.01,-57.31 29.38,-30.39 62.8,-67.77 99.11,-102.63 45.08,-43.27 95.64,-91.72 150.52,-138.17 30.43,-25.76 62.19,-50.9 95.14,-74.17 l -0.17,-0.22 z m -475.77,810.93 -181.26,0 c 11.45,-5.56 26.24,-15.05 41.69,-31.13 l 1.05,-1.11 0,-71.61 138.65,-206.09 0,195.1 -0.13,114.84" /></g></g></svg>