<?xml version="1.0" encoding="UTF-8" standalone="no"?>
<!-- Created with Inkscape (http://www.inkscape.org/) -->

<svg
   xmlns:dc="http://purl.org/dc/elements/1.1/"
   xmlns:cc="http://creativecommons.org/ns#"
   xmlns:rdf="http://www.w3.org/1999/02/22-rdf-syntax-ns#"
   xmlns:svg="http://www.w3.org/2000/svg"
   xmlns="http://www.w3.org/2000/svg"
   xmlns:sodipodi="http://sodipodi.sourceforge.net/DTD/sodipodi-0.dtd"
   xmlns:inkscape="http://www.inkscape.org/namespaces/inkscape"
   width="54.678814mm"
   height="48.287868mm"
   viewBox="0 0 193.74383 171.09875"
   id="svg4772"
   version="1.1"
   inkscape:version="0.91 r13725"
   sodipodi:docname="vive.svg">
  <defs
     id="defs4774" />
  <sodipodi:namedview
     id="base"
     pagecolor="#ffffff"
     bordercolor="#666666"
     borderopacity="1.0"
     inkscape:pageopacity="0.0"
     inkscape:pageshadow="2"
     inkscape:zoom="0.35"
     inkscape:cx="-329.55666"
     inkscape:cy="5.5493753"
     inkscape:document-units="px"
     inkscape:current-layer="layer1"
     showgrid="false"
     fit-margin-top="0"
     fit-margin-left="0"
     fit-margin-right="0"
     fit-margin-bottom="0"
     inkscape:window-width="1920"
     inkscape:window-height="1027"
     inkscape:window-x="-8"
     inkscape:window-y="-8"
     inkscape:window-maximized="1" />
  <metadata
     id="metadata4777">
    <rdf:RDF>
      <cc:Work
         rdf:about="">
        <dc:format>image/svg+xml</dc:format>
        <dc:type
           rdf:resource="http://purl.org/dc/dcmitype/StillImage" />
        <dc:title></dc:title>
      </cc:Work>
    </rdf:RDF>
  </metadata>
  <g
     inkscape:label="Layer 1"
     inkscape:groupmode="layer"
     id="layer1"
     transform="translate(-283.12808,-366.81283)">
    <path
       inkscape:connector-curvature="0"
       id="path3487"
       style="fill:#00b5e0;fill-opacity:1;fill-rule:nonzero;stroke:none"
       d="m 475.17947,497.38283 -71.7775,-124.2625 c -2.25375,-3.9025 -6.41875,-6.3075 -10.9275,-6.3075 l -24.96376,0 c -4.5075,0 -8.6725,2.405 -10.9275,6.30875 l -71.76375,124.26375 c -2.255,3.905 -2.255,8.715 -10e-4,12.62 l 12.46625,21.59625 c 2.25375,3.90375 6.42,6.31 10.92875,6.31 l 143.56251,0 c 4.50625,0 8.6725,-2.405 10.92625,-6.3075 l 12.4775,-21.5975 c 2.25625,-3.905 2.25625,-8.7175 0,-12.62375 m -60.95125,12.00125 c -10.80625,3.41 -22.30625,5.24625 -34.24126,5.24625 -11.91875,0 -23.41375,-1.835 -34.215,-5.2375 -12.6425,-3.98625 -20.44625,-16.80625 -17.7275,-29.77875 4.95,-23.6 17.22,-44.51125 34.32875,-60.24625 9.9775,-9.1775 25.25376,-9.18 35.23376,-0.006 17.1125,15.73 29.38875,36.6425 34.33875,60.2425 2.72125,12.9725 -5.08,25.78875 -17.7175,29.78" />
  </g>
</svg>
