<?xml version="1.0" encoding="UTF-8" standalone="no"?>
<!-- Created with Inkscape (http://www.inkscape.org/) -->

<svg
   xmlns:dc="http://purl.org/dc/elements/1.1/"
   xmlns:cc="http://creativecommons.org/ns#"
   xmlns:rdf="http://www.w3.org/1999/02/22-rdf-syntax-ns#"
   xmlns:svg="http://www.w3.org/2000/svg"
   xmlns="http://www.w3.org/2000/svg"
   xmlns:sodipodi="http://sodipodi.sourceforge.net/DTD/sodipodi-0.dtd"
   xmlns:inkscape="http://www.inkscape.org/namespaces/inkscape"
   width="24.799414mm"
   height="45.825356mm"
   viewBox="0 0 87.871938 162.37331"
   id="svg4146"
   version="1.1"
   inkscape:version="0.91 r13725"
   sodipodi:docname="Witcher 3.svg">
  <defs
     id="defs4148" />
  <sodipodi:namedview
     id="base"
     pagecolor="#ffffff"
     bordercolor="#666666"
     borderopacity="1.0"
     inkscape:pageopacity="0.0"
     inkscape:pageshadow="2"
     inkscape:zoom="0.35"
     inkscape:cx="-377.49238"
     inkscape:cy="81.186455"
     inkscape:document-units="px"
     inkscape:current-layer="layer1"
     showgrid="false"
     fit-margin-top="0"
     fit-margin-left="0"
     fit-margin-right="0"
     fit-margin-bottom="0"
     inkscape:window-width="1920"
     inkscape:window-height="1027"
     inkscape:window-x="-8"
     inkscape:window-y="-8"
     inkscape:window-maximized="1" />
  <metadata
     id="metadata4151">
    <rdf:RDF>
      <cc:Work
         rdf:about="">
        <dc:format>image/svg+xml</dc:format>
        <dc:type
           rdf:resource="http://purl.org/dc/dcmitype/StillImage" />
        <dc:title></dc:title>
      </cc:Work>
    </rdf:RDF>
  </metadata>
  <g
     inkscape:label="Layer 1"
     inkscape:groupmode="layer"
     id="layer1"
     transform="translate(-331.0638,-451.17535)">
    <path
       inkscape:connector-curvature="0"
       id="path14"
       style="fill:#d70926;fill-opacity:1;fill-rule:nonzero;stroke:none"
       d="m 375.26939,551.2181 c 0.14875,-0.75538 0.265,-1.5215 0.51,-2.24425 0.35125,-1.02875 0.8075,-2.017 1.21125,-3.02 0.3,-0.73725 0.6075,-1.46975 0.87625,-2.21475 0.25625,-0.71488 0.5275,-1.41613 0.99625,-2.01863 0.315,-0.41012 0.63625,-0.81 0.95625,-1.21625 0.0375,-0.0489 0.0838,-0.1075 0.1225,-0.15875 0.46125,-0.33887 0.98125,-0.72025 1.6375,-1.18412 -0.0263,-0.2075 -0.0575,-0.37588 -0.0725,-0.54588 -0.115,-1.32125 -0.2275,-4.42862 -0.34,-5.7475 -0.23375,-2.774 -0.46625,-5.54787 -0.7,-8.32037 -0.09,-1.06975 -0.17125,-2.14113 -0.26125,-3.21088 -0.14625,-1.71875 -0.2975,-3.43512 -0.4475,-5.15137 -0.0975,-1.16363 -0.19,-2.32863 -0.285,-3.48638 -0.1,-1.206 -0.195,-2.40725 -0.29375,-3.60887 -0.0263,-0.36963 -0.0337,-0.73875 -0.07,-1.11225 -0.1225,-1.26275 -0.25875,-2.53275 -0.37625,-3.794 -0.095,-1.03125 -0.16875,-2.061 -0.25625,-3.09613 -0.0975,-1.211 -0.215,-2.42637 -0.3025,-3.63725 -0.0663,-0.94 -0.1,-1.88037 -0.14625,-2.82275 -0.0175,-0.356 -0.0275,-0.71487 -0.0425,-1.07125 -0.0188,-0.545 -0.0362,-1.086 -0.06,-1.6285 -0.015,-0.29 -0.0487,-0.584 -0.0562,-0.8715 -0.0512,-1.97762 -0.0937,-3.95237 -0.145,-5.92737 -0.0312,-1.10125 -0.0575,-2.2 -0.11875,-3.29625 -0.0587,-1.08625 -0.12,-2.1725 -0.25375,-3.2525 -0.27125,-2.2225 -0.59625,-4.43875 -0.89375,-6.6575 -0.3275,-2.4025 -0.655,-4.805 -0.975,-7.2075 -0.1,-0.75875 -0.1675,-1.52875 -0.2675,-2.2925 -0.2225,-1.65 -1.8,-11.2475 -1.8,-11.2475 0,0 -0.115,1.2425 -0.26875,1.73375 -0.0213,0.075 -0.0238,0.16 -0.0137,0.23375 0.0362,0.305 1.06125,16.80625 1.16625,18.4475 0.1125,1.72375 0.205,3.4425 0.3325,5.16125 0.09,1.2675 0.22875,2.535 0.33875,3.80125 0.0425,0.46375 0.0788,0.92625 0.12,1.39 -0.0462,-0.1025 -0.09,-0.18875 -0.13625,-0.25125 -0.19125,-0.27375 -0.50125,-0.78125 -0.875,-1.41625 -0.0238,-0.2475 0.40375,13.35875 0.40375,13.35875 l -3.4775,-33.245 c 0,0 -1.15125,2.64625 -1.58375,5.5075 -0.1375,0.90625 -1.5875,3.1325 -1.5875,3.1325 0,0 0.0125,0.38125 0.0375,1.0325 -0.0462,0.5575 -0.0888,1.08 -0.125,1.595 -0.0462,0.605 -0.0763,1.215 -0.1275,1.82375 -0.11375,1.40125 -0.23875,2.8 -0.35625,4.2025 -0.0975,1.16125 -0.19,2.32625 -0.2825,3.48875 -0.095,1.135 -0.21,2.27 -0.27125,3.4075 -0.0387,0.68625 -0.007,1.38 0.015,2.07 0.0675,2.09 0.17,4.18762 0.21875,6.28475 0.0275,1.26662 -0.0488,2.5415 0.0325,3.8115 0.0975,1.54987 0.12875,3.09775 -0.095,4.645 -0.115,0.78375 -0.1075,1.585 -0.15625,2.376 -0.0225,0.40287 -0.0375,0.79787 -0.0713,1.19387 -0.0387,0.42238 -0.0825,0.84275 -0.14875,1.26025 -0.0713,0.45363 -0.18125,0.90475 -0.25625,1.36375 -0.34,2.05125 -0.67125,4.1075 -1.00125,6.15975 -0.12,0.7475 -0.24375,1.49013 -0.33875,2.23875 -0.115,0.93263 -0.20125,1.86525 -0.29875,2.80275 -0.0638,0.62988 -0.14375,1.26213 -0.195,1.895 -0.0538,0.67625 -0.0763,1.355 -0.125,2.02875 -0.0513,0.73975 -0.15875,1.47763 -0.18,2.21638 -0.0588,2.34612 -0.09,4.69475 -0.1375,7.041 -0.0262,1.35012 0.0538,4.40237 -0.14625,5.81887 -0.0337,0.1435 -0.0438,0.25088 0,0.27488 -0.1725,1.43362 0.755,1.09862 2.66125,2.69387 -0.01,0.0264 -0.0213,0.0625 -0.0337,0.0825 0.12,0.105 0.2175,0.23625 0.34625,0.31738 0.2325,0.13625 0.4375,0.29737 0.6275,0.4785 0.002,0 0.002,0.003 0.005,0.005 0.1875,0.17725 0.36375,0.3725 0.5325,0.57712 0.8225,0.9775 1.365,2.11775 1.72625,3.32663 0.2125,0.69975 0.26125,1.45762 0.33625,2.19237 0.0788,0.76375 0.09,1.53763 0.15625,2.29888 0.0638,0.73975 0.16875,1.47463 0.24625,2.21488 0.145,1.41112 0.1475,1.04737 0.3275,2.456 0.0888,0.68412 0.14375,1.374 0.19375,2.0655 -0.335,1.22112 -0.645,2.90225 -0.8375,5.227 -0.0637,0.7925 -0.15875,1.53762 -0.27125,2.24662 -0.005,-0.0738 -0.007,-0.1475 -0.0125,-0.22025 -0.0825,-1.0185 -0.185,-2.03362 -0.27125,-3.05225 -0.11,-1.2915 -0.5025,-2.82375 -0.64875,-4.11137 -0.1175,-1.01025 0,0 -0.16875,-1.00488 -0.015,-0.0839 -0.0462,-0.164 -0.0687,-0.24512 -0.065,0.20275 -0.065,0.3985 -0.065,0.59375 0.004,0.32775 -0.0913,0.625 -0.26625,0.8985 -0.15,0.229 -0.27625,0.4775 -0.4125,0.72025 -0.105,0.185 -0.19125,0.38525 -0.33,0.5415 -0.635,0.71875 -1.19125,1.5185 -2.01,2.0635 -0.0163,0.0102 -0.0213,0.0464 -0.0238,0.0512 0.1,0.36125 0.2125,1.06637 0.42,1.72112 0.64625,2.03375 0.64625,2.03375 0.835,3.26375 0.0925,0.58888 0.12875,1.18163 0.1975,1.77775 0.105,0.9175 0.25125,1.836 0.32,2.75888 0.0688,0.94962 0.0688,1.90625 0.0925,2.86075 0.0175,0.67625 0,1.355 0.0387,2.03125 0.015,0.22512 0.0225,0.44775 0.0325,0.67137 -0.0487,0.65538 -0.0787,1.33888 -0.0687,2.0665 0.002,0.25338 0.01,0.53125 0.025,0.82763 -0.0475,0.392 -0.1125,0.78612 -0.205,1.17575 -0.105,0.45162 -0.20375,0.8765 -0.59625,1.165 0.085,0.36136 0.16625,0.669 0.23375,0.97661 0.3325,1.52876 0.6525,3.05863 1.10125,4.55464 0.1175,0.39161 0.225,0.7915 0.31,1.19287 0.12,0.5825 0.205,1.17088 0.3225,1.75738 0.0175,0.08 0.0438,0.15862 0.0638,0.23625 0.25625,1.6485 0.5175,3.14025 0.75875,4.275 0.005,0.02 -0.002,0.0351 0.002,0.0536 0.015,0.044 0.0275,0.0899 0.04,0.13775 0.0263,0.12113 0.0538,0.25338 0.08,0.36713 -0.008,0.104 0.0387,0.20412 0.11,0.3125 0.125,0.42775 0.25625,0.85262 0.35875,1.28762 0.1925,0.7915 0.335,1.60163 0.515,2.40525 0.16125,0.71738 0.35125,1.4375 0.5125,2.15725 0.19875,0.88138 0.36625,1.76517 0.56375,2.64408 0.28375,1.25244 0.5425,2.5122 0.8825,3.75 0.2625,0.95995 0.6275,1.89209 0.95625,2.83251 0.4025,1.16455 0.81375,2.32374 1.21875,3.4834 0.0312,0.0903 0.08,0.17627 0.15125,0.32764 0.0563,-0.47607 0.1025,-0.87109 0.15125,-1.26514 0.12,-0.94482 0.24375,-1.89355 0.36125,-2.84131 0.125,-1.01123 0.24125,-2.02588 0.36375,-3.0371 0.0813,-0.66895 0.17625,-1.34278 0.25375,-2.01173 0.0813,-0.6958 0.1375,-1.39746 0.2225,-2.08983 0.0663,-0.5376 0.195,-1.06983 0.24375,-1.60602 0.0838,-0.90912 0.12,-1.82662 0.18875,-2.73775 0.0213,-0.31737 0.0138,-0.65625 0.12625,-0.93987 0.2025,-0.5 0.26375,-1.0225 0.36375,-1.5425 0.18375,-0.93263 0.36875,-1.86475 0.55,-2.78375 -0.0175,-0.0185 -0.035,-0.0385 -0.0513,-0.0561 0.0725,-0.45112 0.14875,-0.96137 0.22125,-1.53762 0.38125,-1.91888 0.71125,-5.1465 1.0575,-7.03125 0.2,-1.09125 0.3375,-2.19775 0.47875,-3.29875 0.1025,-0.78863 0.16375,-1.58113 0.25375,-2.37263 0.17625,-1.52337 0.36125,-3.04737 0.5425,-4.57475 0.1025,-0.88037 0.205,-1.76112 0.295,-2.645 0.1125,-1.06387 0.25625,-2.13375 0.3075,-3.20262 0.1225,-2.49025 0.195,-3.19875 0.3,-5.689 0.01,-0.23875 -0.0775,-0.351 -0.26375,-0.47113 -0.35125,-0.2285 -0.7125,-0.461 -1.0075,-0.75337 -1.05,-1.0455 -1.74875,-2.32275 -2.22,-3.71388 -0.22375,-0.66112 -0.36875,-1.355 -0.49,-2.044 -0.125,-0.71237 -0.17625,-1.44237 -0.25875,-2.165 -0.03,0 -0.0637,-0.003 -0.0937,-0.003 -0.065,0.2925 -0.15625,0.584 -0.1925,0.88138 -0.22875,1.8775 -0.46625,1.97512 -0.67375,3.85737 -0.2075,1.899 -0.295,3.80375 -0.33625,5.7125 -0.3125,-2.03862 -0.70125,-4.11875 -1.11125,-6.191 0,-0.005 -0.002,-0.008 -0.002,-0.0102 0.0387,-0.1435 0.08,-0.32225 0.1275,-0.85587 0.15625,-1.78275 0.3725,-3.55763 0.725,-5.3125 z m 38.09,-12.73538 -8.39375,5.25638 -4.245,6.96475 c -0.56625,2.07675 -1.4875,4.50787 -2.98625,7.19287 -0.0163,0.0323 -0.0213,0.0561 -0.0362,0.0884 -0.505,0.395 -0.96875,0.72762 -0.96875,0.72762 l -0.70375,0.56875 -0.0125,0.15625 c 0,0 -0.0538,0.49763 -0.09,0.74513 -0.0312,0.22125 -0.1,0.4415 -0.1125,0.6685 -0.0637,1.02537 -0.12375,2.0625 -0.17125,3.09525 -0.0875,1.94625 -0.14875,3.8935 -0.25125,5.84225 -0.0312,0.6055 -0.16625,1.2065 -0.25125,1.80912 -0.085,0.58888 -0.17375,1.17963 -0.26875,1.84375 0.60125,-0.80375 1.19125,-1.51612 1.705,-2.28275 0.615,-0.92387 1.16125,-1.88962 1.74,-2.83737 0.25875,-0.42725 0.48125,-0.87113 0.71,-1.314 0.2175,-0.008 0.4375,-0.0571 0.655,-0.0996 l 3.035,-4.314 -4.65375,10.84775 -1.20875,0.75338 c -0.2175,0.43012 -0.43125,0.86037 -0.64875,1.29 -0.1075,0.21287 -0.16375,0.44637 -0.26125,0.66412 -0.1225,0.27875 -0.2425,0.55863 -0.39375,0.82225 -0.275,0.4765 -0.51,0.95513 -0.46875,1.53125 0.007,0.0751 -0.0138,0.15863 -0.0238,0.23638 -0.1425,1.104 -0.32,2.20262 -0.4175,3.31387 -0.14625,1.66213 -0.39875,3.315 -0.69625,4.9575 -0.2,1.11088 -0.33,2.22763 -0.285,3.35988 0.004,0.12262 0.0188,0.23875 0.0263,0.36375 0.0275,0 0.0512,0 0.0763,0 0.1025,-0.23475 0.205,-0.46875 0.3025,-0.7065 0.9325,-2.19875 1.8575,-4.40088 2.79,-6.59863 0.4375,-1.03225 0.87625,-2.06987 1.32875,-3.09712 0.4875,-1.11675 0.94875,-2.24663 1.49125,-3.3325 0.87625,-1.7515 1.80875,-3.47275 2.7225,-5.20513 0.59,-1.1265 1.16375,-2.25387 1.7775,-3.36525 0.65125,-1.186 1.15875,-2.436 1.6675,-3.6885 0.2825,-0.69387 0.51,-1.4165 0.78375,-2.11912 0.2975,-0.77588 0.6175,-1.5435 0.93,-2.31738 0.22625,-0.5635 0.47125,-1.1225 0.68625,-1.6885 0.2825,-0.75775 0.53875,-1.519 0.8125,-2.27637 0.12,-0.33638 0.24875,-0.67138 0.37375,-1.00488 0.2,-0.54537 0.4025,-1.08887 0.5925,-1.63625 0.215,-0.61025 0.455,-1.21875 0.62125,-1.84125 0.21375,-0.83012 0.42375,-1.66262 0.63375,-2.49262 2.285,-6.36775 6.11125,-14.57775 7.66375,-17.84138 l -5.57625,6.96 z M 331.15314,472.8016 c 0.002,0.22375 0.002,0.44875 -0.0238,0.67375 -0.04,0.36125 -0.005,0.7125 0.0975,1.06125 0.12625,0.4375 0.17,0.8775 0.16375,1.33375 -0.0225,1.84625 -0.035,3.68875 -0.04,5.53 0,0.4125 -0.002,0.835 0.0913,1.23 0.23625,0.99 0.4725,1.985 0.805,2.9475 0.37125,1.06875 0.745,2.14125 1.11625,3.21 -0.06,0.34225 0.0638,1.37012 0.185,2.38475 l 2.34375,7.689 -4.3875,-10.5025 c 0,0.41025 0,0.81987 0,1.23 -0.002,0.73 -0.006,1.4575 -0.005,2.18512 0.002,0.32713 -0.0337,0.67375 0.045,0.98625 0.15,0.60263 0.2825,1.211 0.445,1.80863 l 1.02625,2.10987 1.78,5.27788 3.9075,10.08587 -7.035,-10.63475 c 0.002,0.20513 0.002,0.40963 0.0125,0.61475 0.0362,0.79638 0.0763,1.58738 0.1175,2.38288 0.0138,0.26362 0.0312,0.52975 0.0725,0.7885 0.0638,0.42 0.18875,0.83012 0.2175,1.2525 0.0362,0.51262 0.0662,1.02637 0.15625,1.5385 0.195,1.105 0.3425,2.21875 0.54,3.32275 0.14375,0.79637 0.35625,1.57762 0.5125,2.37262 0.24625,1.24513 0.44375,2.50238 0.7175,3.74213 0.0225,0.10162 0.0325,0.19875 0.0512,0.29637 -0.0125,1.28613 -0.1875,2.9615 -0.0525,3.979 -0.0138,0.15088 0.015,0.29113 0.0825,0.43213 -0.29875,0.34037 0.11125,8.2525 0.11125,8.2525 0,0 -0.2925,1.56787 0.47375,6.59912 0,0.007 2.36875,3.17388 2.5225,3.396 0.22,0.32513 0.4975,0.61275 0.75375,0.91263 1.10375,1.2915 2.47875,2.21475 4.02625,2.85887 0.1975,0.0835 0.395,0.22513 0.59,0.38625 1.53375,2.17725 3.31875,4.40863 3.9125,4.2285 0.002,-0.01 -0.0737,-0.1685 -0.16375,-0.44975 l 0.002,0.003 c -0.0412,-0.7325 -0.295,-1.80625 -0.295,-2.68262 0,-0.8765 0.1125,-1.26513 0.295,-2.02638 0.29,-1.20612 0.6,-2.21487 0.915,-3.06012 0.04,-0.0746 0.0662,-0.15725 0.11,-0.23338 0.0637,-0.11037 0.09,-0.21 0.1075,-0.3125 0.61,-1.48637 1.21375,-2.38525 1.6875,-2.9175 0.28625,-0.2715 0.585,-0.53025 0.905,-0.76412 0.205,-0.1475 0.1775,-0.31988 0.13375,-0.52488 -0.32625,-1.55475 -0.72125,-4.876 -0.8875,-6.46237 -0.0925,-0.896 -0.29375,-1.77988 -0.435,-2.66613 -0.2125,-1.35 -0.3925,-2.70262 -0.6375,-4.04537 -0.11375,-0.64988 -0.2875,-1.2935 -0.52,-1.91213 -0.285,-0.73875 -0.68375,-1.43262 -0.98875,-2.165 -0.23625,-0.57125 -0.45375,-1.16012 -0.605,-1.76025 -0.3275,-1.30862 -0.60125,-2.63237 -0.90625,-3.94487 -0.1675,-0.72113 -0.32875,-1.44875 -0.53125,-2.15863 -0.5575,-1.94637 -1.12625,-3.88875 -1.7,-5.835 -0.33625,-1.14262 -0.6925,-2.27787 -1.0275,-3.415 -0.2325,-0.78912 -0.49625,-1.57275 -0.655,-2.3765 -0.4025,-2.0825 -1.225,-4.021 -1.91125,-6.00737 -0.45625,-1.31388 -0.98375,-2.6015 -1.41125,-3.92138 -0.4075,-1.25987 -0.7175,-2.54862 -1.08625,-3.82362 -0.94,-3.26875 -1.8925,-6.5375 -2.8275,-9.8075 -0.41,-1.41375 -0.7925,-2.83 -1.18375,-4.2475 -0.0487,-0.16375 -0.0688,-0.3375 -0.12125,-0.50375 -0.10125,-0.3175 -0.2325,-0.625 -0.325,-0.9475 -0.1275,-0.44125 -0.21,-0.8975 -0.345,-1.34 -0.24875,-0.8375 -0.52,-1.6675 -0.78625,-2.5 -0.006,-0.0213 -0.06,-0.0362 -0.1,-0.0588 -0.1775,0.25625 -0.11875,0.545 -0.11625,0.81875 0.0212,2.02875 0.0512,4.055 0.0775,6.08625 z m 23.67625,113.9335 c -0.0512,-0.31488 -0.14625,-0.57863 -0.32,-0.8325 -0.11,-0.1635 -0.2,-0.352 -0.24375,-0.53713 -0.2025,-0.83787 -0.38875,-1.67775 -0.56625,-2.52 -0.04,-0.18262 -0.1225,-0.30762 -0.26375,-0.4175 -1.145,-0.90037 -1.8075,-1.94287 -2.7175,-3.08 -0.1075,-0.13525 -0.2175,-0.2715 -0.3275,-0.40625 0.3325,-0.0161 0.3025,-0.0776 0.6125,-0.16512 l -0.25625,-0.32275 -2.875,-7.80713 5.26125,9.001 c 0.005,0.008 0.009,0.0127 0.0137,0.0161 -0.005,-0.4185 -0.065,-0.80713 -0.14375,-1.19088 -0.37125,-1.82862 -0.75625,-3.65537 -1.11375,-5.48487 -0.15625,-0.80425 -0.2625,-1.62163 -0.38,-2.43025 -0.125,-0.86375 -0.2375,-1.73238 -0.35625,-2.6 -0.0763,-0.53525 -0.18375,-1.07138 -0.2375,-1.609 -0.09,-0.93988 -0.15875,-1.8725 -0.22,-2.81488 -0.095,-1.521 -0.1775,-1.25975 -0.26375,-2.77975 -0.0263,-0.48887 -0.0288,-0.98 -0.0362,-1.47025 -0.002,-0.15875 -0.0288,-0.28862 -0.1925,-0.3535 -0.85125,-0.35262 -1.555,-0.92137 -2.23625,-1.52887 -0.16625,-0.1465 -0.32375,-0.30513 -0.4875,-0.4565 -1.32375,-7.815 -4.0275,-8.20363 -5.61375,-11.30863 -2.53625,-1.626 -5.97375,-3.90862 -5.97375,-3.90862 l -4.81625,-3.99372 c 0,0 1.2075,2.65387 2.885,6.34475 0.21,0.59275 0.4175,1.1865 0.635,1.77787 0.5125,1.39113 1.04,2.7725 1.555,4.16263 0.35125,0.93987 0.69625,1.88225 1.0425,2.82612 0.57625,1.56738 1.1525,3.12988 1.72625,4.69488 0.26125,0.72012 0.495,1.45262 0.77375,2.16887 0.6375,1.61088 1.28875,3.21738 1.93625,4.82625 0.1025,0.25875 0.1825,0.52488 0.295,0.78125 0.26875,0.63225 0.5525,1.25725 0.825,1.88475 0.37375,0.86375 0.7425,1.73138 1.11125,2.59275 0.2025,0.47113 0.4425,0.935 0.59875,1.42625 0.31,0.96875 0.59,1.94725 0.85375,2.93113 0.29375,1.1035 0.69375,2.166 1.14,3.21387 0.0637,0.146 0.1425,0.28475 0.2225,0.42088 0.62,1.01912 1.29625,1.99762 2.05875,2.9165 0.1875,0.21875 0.39,0.42875 0.56625,0.65625 0.85625,1.109 1.7025,2.22125 2.56,3.32775 0.5425,0.69862 1.08875,1.3935 1.645,2.08487 0.47625,0.5835 0.965,1.15725 1.44875,1.73338 0.08,0.0953 0.1825,0.1705 0.2725,0.25887 0.0225,-0.0176 0.0462,-0.0323 0.0712,-0.041 -0.0288,-0.10987 -0.0587,-0.21787 -0.085,-0.32275 -0.1325,-0.55475 -0.29625,-1.106 -0.38375,-1.66512 z m 43.4475,-49.36075 c 0.23625,0.27587 0.54125,0.48875 0.8475,0.75487 0.0825,-0.16412 0.14625,-0.27637 0.1975,-0.39112 0.29,-0.6465 0.56375,-2.19925 0.85625,-3.36375 0.92375,-1.28125 2.07375,-2.89025 3.00125,-4.23888 -0.5225,1.10113 -1.045,2.19975 -1.5675,3.29838 -0.67125,1.40387 -1.0625,4.6905 -1.59,6.148 -0.0587,0.16112 0.007,0.26612 0.0863,0.39737 0.35875,0.60113 0.6975,1.20363 0.84625,1.90975 0.0125,0.0615 0.0325,0.1215 0.0475,0.18263 0.0925,0.52487 0.21625,1.0425 0.41875,1.53612 0.1175,0.28513 0.36,2.46775 -0.3925,5.86375 l 3.42,-6.6235 4.00375,-1.9825 7.55875,-8.97412 c -1.25,0.53425 -2.34625,0.854 -2.365,0.33887 -0.0375,-0.92475 0.005,-6.32225 0.005,-6.32225 l -0.29125,-8.0625 c 0,0 -0.1,-4.51125 -0.1,-7.49262 0.002,-0.46638 0.007,-0.93263 0.01,-1.399 0.01,-0.46875 0.025,-0.83738 0.0462,-1.02488 0.0175,-0.14012 0.005,-0.146 -0.0362,-0.0435 0.015,-2.1225 0.0312,-4.24412 0.0513,-6.36762 0.0162,-1.60113 0.0612,-3.209 0.0587,-4.8125 -0.002,-0.80763 -0.0225,-1.6065 0.1075,-2.4165 0.1925,-1.1675 0.305,-2.34863 0.43125,-3.52838 l -7.5675,17.5835 1.8525,-6.8925 c 0.007,-0.041 0.015,-0.0801 0.0225,-0.12262 0.74125,-4.2275 2.43125,-8.32713 3.21,-12.54825 0.33,-1.794 0.705,-3.5715 1.13,-5.3415 0.04,-0.17375 0.0737,-0.35125 0.1175,-0.525 0.125,-0.515 0.25875,-1.0275 0.38875,-1.5425 -0.19125,0.68625 -0.3425,1.37875 -0.50625,2.0675 -0.3225,1.38375 -0.5975,2.77875 -0.89125,4.1725 -0.0825,0.3875 -0.1675,0.77625 -0.23875,1.169 -0.1175,0.65475 -0.2325,1.3085 -0.34875,1.96087 l 4.63125,-17.20987 c -0.005,-0.0463 0.002,-0.0937 -0.005,-0.14 0,-0.002 0,-0.002 0,-0.002 0.14625,-0.57625 1.40625,-9.62875 1.40625,-9.62875 0,0 -4.13125,12.5375 -4.585,13.985 -0.28875,0.91125 -1.18125,1.3925 -1.4525,2.305 -0.6325,2.13375 -9.04625,28.845 -9.14625,29.33612 -0.13875,0.67625 -1.82125,3.69875 -1.945,4.375 -0.38625,2.15238 -0.335,4.88288 -0.9725,6.98 -1.31,4.27488 -1.30125,9.41413 -1.59625,10.29488 -0.2225,0.6505 -0.46625,3.07375 -0.69625,3.72412 -0.12875,0.3585 -0.25625,0.71975 -0.385,1.09088 0.0825,0.0566 0.14375,0.10787 0.2125,0.144 0.66875,0.3335 1.22,0.81012 1.71375,1.379" />
  </g>
</svg>
